<?xml version="1.0" encoding="UTF-8"?>
<svg width="72px" height="72px" viewBox="0 0 72 72" version="1.1" xmlns="http://www.w3.org/2000/svg" xmlns:xlink="http://www.w3.org/1999/xlink">
    <title>PNG/Light/Winset/Action_bar/tw_ic_ab_search_location_mtrl</title>
    <defs>
        <path d="M36,7.0425 C37.242,7.0425 38.25,8.0505 38.25,9.2925 L38.25,9.2925 L38.25,12.8625 C49.275,13.9275 58.074,22.7235 59.139,33.7515 L59.139,33.7515 L62.709,33.7515 C63.951,33.7515 64.959,34.7595 64.959,36.0015 C64.959,37.2435 63.951,38.2515 62.709,38.2515 L62.709,38.2515 L59.139,38.2515 C58.074,49.2795 49.275,58.0755 38.25,59.1405 L38.25,59.1405 L38.25,62.7075 C38.25,63.9525 37.242,64.9575 36,64.9575 C34.755,64.9575 33.75,63.9525 33.75,62.7075 L33.75,62.7075 L33.75,59.1405 C22.725,58.0755 13.926,49.2795 12.861,38.2515 L12.861,38.2515 L9.291,38.2515 C8.049,38.2515 7.041,37.2435 7.041,36.0015 C7.041,34.7595 8.049,33.7515 9.291,33.7515 L9.291,33.7515 L12.861,33.7515 C13.926,22.7235 22.725,13.9275 33.75,12.8625 L33.75,12.8625 L33.75,9.2925 C33.75,8.0505 34.755,7.0425 36,7.0425 Z M36.174,17.2545 C36.117,17.2605 36.06,17.2725 36,17.2725 C35.94,17.2725 35.883,17.2605 35.826,17.2545 C25.626,17.3475 17.352,25.6245 17.253,35.8215 C17.259,35.8845 17.271,35.9385 17.271,36.0015 C17.271,36.0615 17.259,36.1185 17.253,36.1785 C17.352,46.3755 25.623,54.6495 35.82,54.7455 C35.88,54.7425 35.937,54.7275 36,54.7275 C36.063,54.7275 36.117,54.7425 36.18,54.7455 C46.374,54.6495 54.648,46.3755 54.744,36.1785 C54.741,36.1185 54.729,36.0615 54.729,36.0015 C54.729,35.9385 54.741,35.8845 54.744,35.8215 C54.648,25.6245 46.371,17.3475 36.174,17.2545 Z M36.0012,24.7515 C42.2112,24.7515 47.2512,29.7885 47.2512,36.0015 C47.2512,42.2115 42.2112,47.2515 36.0012,47.2515 C29.7882,47.2515 24.7512,42.2115 24.7512,36.0015 C24.7512,29.7885 29.7882,24.7515 36.0012,24.7515 Z" id="path-1"></path>
    </defs>
    <g id="PNG/Light/Winset/Action_bar/tw_ic_ab_search_location_mtrl" stroke="none" stroke-width="1" fill="none" fill-rule="evenodd">
        <mask id="mask-2" fill="white">
            <use xlink:href="#path-1"></use>
        </mask>
        <use id="Current-location" fill="#FFFFFF" xlink:href="#path-1"></use>
    </g>
</svg>