<?xml version="1.0" encoding="UTF-8"?>
<svg width="72px" height="72px" viewBox="0 0 72 72" version="1.1" xmlns="http://www.w3.org/2000/svg" xmlns:xlink="http://www.w3.org/1999/xlink">
    <title>PNG/Light/Winset/Action_bar/tw_ic_voice_search_api_mtrl_alpha</title>
    <defs>
        <path d="M52.251,34.64595 L57.501,34.72695 C57.339,45.51495 49.239,54.13395 38.625,55.35195 L38.625,55.35195 L38.625,65.35395 L33.375,65.35395 L33.375,55.33095 C22.128,53.92695 14.499,43.82595 14.499,34.68795 L14.499,34.68795 L19.749,34.68795 C19.749,42.04995 26.439,50.25195 36.045,50.25195 C45,50.25195 52.119,43.39695 52.251,34.64595 L52.251,34.64595 Z M35.9991,6.64605 C41.6991,6.64605 46.3371,11.28405 46.3371,16.98105 L46.3371,16.98105 L46.3071,34.65405 C46.3071,40.35105 41.6841,44.98905 35.9991,44.98905 C30.3021,44.98905 25.6641,40.35105 25.6641,34.65405 L25.6641,34.65405 L25.6641,16.98105 C25.6641,11.28405 30.3021,6.64605 35.9991,6.64605 Z" id="path-1"></path>
    </defs>
    <g id="PNG/Light/Winset/Action_bar/tw_ic_voice_search_api_mtrl_alpha" stroke="none" stroke-width="1" fill="none" fill-rule="evenodd">
        <mask id="mask-2" fill="white">
            <use xlink:href="#path-1"></use>
        </mask>
        <use id="Voice-(Search-field)" fill="#FFFFFF" xlink:href="#path-1"></use>
    </g>
</svg>