<?xml version="1.0" encoding="utf-8"?>
<!-- Generator: Adobe Illustrator 16.0.3, SVG Export Plug-In . SVG Version: 6.00 Build 0)  -->
<!DOCTYPE svg PUBLIC "-//W3C//DTD SVG 1.1//EN" "http://www.w3.org/Graphics/SVG/1.1/DTD/svg11.dtd">
<svg version="1.1" id="Layer_1" xmlns="http://www.w3.org/2000/svg" xmlns:xlink="http://www.w3.org/1999/xlink" x="0px" y="0px"
	 width="72px" height="72px" viewBox="0 0 72 72" enable-background="new 0 0 72 72" xml:space="preserve">
<path fill="#FFFFFF" d="M62.387,57.766L49.55,44.93c2.734-3.684,4.355-8.242,4.355-13.171c0-12.211-9.937-22.146-22.149-22.146
	c-12.21,0-22.144,9.934-22.144,22.146c0,12.212,9.934,22.148,22.144,22.148c4.929,0,9.488-1.62,13.172-4.355l12.837,12.836
	L62.387,57.766z M16.147,31.758c0-8.607,7.002-15.611,15.609-15.611c8.61,0,15.614,7.003,15.614,15.611
	c0,8.609-7.004,15.613-15.614,15.613C23.149,47.371,16.147,40.367,16.147,31.758z"/>
</svg>
