<?xml version="1.0" encoding="utf-8"?>
<!-- Generator: Adobe Illustrator 22.1.0, SVG Export Plug-In . SVG Version: 6.00 Build 0)  -->
<svg version="1.1" id="Layer_1" xmlns="http://www.w3.org/2000/svg" xmlns:xlink="http://www.w3.org/1999/xlink" x="0px" y="0px"
	 viewBox="0 0 96 96" style="enable-background:new 0 0 96 96;" xml:space="preserve">
<style type="text/css">
	.st0{opacity:0.7;fill:#FFFFFF;enable-background:new    ;}
	.st1{fill:#FFFFFF;}
</style>
<g id="Check">
	<g id="_x30_06_1_">
		<path id="_x37_0_x25_" class="st0" d="M48,21c14.9,0,27,12.1,27,27c0,14.9-12.1,27-27,27c-14.9,0-27-12.1-27-27
			C21,33.1,33.1,21,48,21"/>
		<path class="st1" d="M48,76c-15.4,0-28-12.6-28-28c0-15.4,12.6-28,28-28s28,12.6,28,28C76,63.4,63.4,76,48,76z M48,23
			c-14.3,0-25,10.7-25,25c0,14.3,10.7,25,25,25c14.3,0,25-10.7,25-25C73,33.7,62.3,23,48,23z"/>
	</g>
</g>
</svg>
