<?xml version="1.0" encoding="utf-8"?>
<!-- Generator: Adobe Illustrator 22.1.0, SVG Export Plug-In . SVG Version: 6.00 Build 0)  -->
<svg version="1.1" id="Layer_1" xmlns="http://www.w3.org/2000/svg" xmlns:xlink="http://www.w3.org/1999/xlink" x="0px" y="0px"
	 viewBox="0 0 96 96" style="enable-background:new 0 0 96 96;" xml:space="preserve">
<style type="text/css">
	.st0{opacity:3.000000e-02;}
	.st1{fill:#FFFFFF;}
</style>
<g id="Check">
	<g id="_x30_01_1_">
		<g id="_x33__x25_" class="st0">
			<path class="st1" d="M48,18.5c16.3,0,29.5,13.2,29.5,29.5c0,16.3-13.2,29.5-29.5,29.5S18.5,64.3,18.5,48
				C18.5,31.7,31.7,18.5,48,18.5"/>
		</g>
		<g>
			<path class="st1" d="M48,78.5c-16.8,0-30.5-13.7-30.5-30.5c0-16.8,13.7-30.5,30.5-30.5c16.8,0,30.5,13.7,30.5,30.5
				C78.5,64.8,64.8,78.5,48,78.5z M48,20.5c-15.7,0-27.5,11.8-27.5,27.5c0,15.7,11.8,27.5,27.5,27.5S75.5,63.7,75.5,48
				C75.5,32.3,63.7,20.5,48,20.5z"/>
		</g>
	</g>
</g>
</svg>
