<?xml version="1.0" encoding="UTF-8" standalone="no"?>
<!-- Created with Inkscape (http://www.inkscape.org/) -->

<svg
   xmlns:dc="http://purl.org/dc/elements/1.1/"
   xmlns:cc="http://creativecommons.org/ns#"
   xmlns:rdf="http://www.w3.org/1999/02/22-rdf-syntax-ns#"
   xmlns:svg="http://www.w3.org/2000/svg"
   xmlns="http://www.w3.org/2000/svg"
   version="1.1"
   width="76"
   height="76"
   id="svg2">
  <defs
     id="defs4" />
  <metadata
     id="metadata7">
    <rdf:RDF>
      <cc:Work
         rdf:about="">
        <dc:format>image/svg+xml</dc:format>
        <dc:type
           rdf:resource="http://purl.org/dc/dcmitype/StillImage" />
        <dc:title></dc:title>
      </cc:Work>
    </rdf:RDF>
  </metadata>
  <g
     transform="translate(-334.9728,-358.7546)"
     id="layer1">
    <path
       d="m 372.92073,434.7546 c -5.734,0.001 -11.435,-1.313 -16.732,-3.917 -9.109,-4.479 -15.929,-12.236 -19.203,-21.844 -0.534,-1.568 0.304,-3.273 1.872,-3.808 1.571,-0.535 3.273,0.304 3.808,1.872 2.757,8.091 8.5,14.623 16.171,18.395 7.671,3.771 16.35,4.328 24.44,1.571 8.091,-2.758 14.623,-8.5 18.395,-16.171 3.772,-7.671 4.329,-16.351 1.571,-24.441 -0.534,-1.568 0.304,-3.273 1.872,-3.807 1.571,-0.536 3.272,0.304 3.808,1.872 3.274,9.607 2.611,19.915 -1.866,29.024 -4.479,9.108 -12.236,15.928 -21.844,19.203 -4.021,1.37 -8.165,2.051 -12.292,2.051 z"
       id="path3101"
       style="fill:#ffffff" />
  </g>
</svg>
