<?xml version="1.0" encoding="utf-8"?>
<!-- Generator: Adobe Illustrator 22.1.0, SVG Export Plug-In . SVG Version: 6.00 Build 0)  -->
<svg version="1.1" id="Layer_1" xmlns="http://www.w3.org/2000/svg" xmlns:xlink="http://www.w3.org/1999/xlink" x="0px" y="0px"
	 viewBox="0 0 96 62" style="enable-background:new 0 0 96 62;" xml:space="preserve">
<style type="text/css">
	.st0{opacity:0.1;fill:#FFFFFF;enable-background:new    ;}
	.st1{fill:#FFFFFF;}
</style>
<g id="Check">
	<g id="_x30_03_1_">
		<path id="_x31_0_x25_" class="st0" d="M48,2.5c15.7,0,28.5,12.8,28.5,28.5c0,15.7-12.8,28.5-28.5,28.5
			c-15.7,0-28.5-12.8-28.5-28.5C19.5,15.3,32.3,2.5,48,2.5"/>
		<path class="st1" d="M48,60.5c-16.3,0-29.5-13.2-29.5-29.5C18.5,14.7,31.7,1.5,48,1.5c16.3,0,29.5,13.2,29.5,29.5
			C77.5,47.3,64.3,60.5,48,60.5z M48,4.6C33.4,4.6,21.6,16.4,21.6,31c0,14.6,11.8,26.4,26.4,26.4c14.6,0,26.4-11.8,26.4-26.4
			C74.4,16.4,62.6,4.6,48,4.6z"/>
	</g>
</g>
</svg>
