<?xml version="1.0" encoding="utf-8"?>
<!-- Generator: Adobe Illustrator 16.0.3, SVG Export Plug-In . SVG Version: 6.00 Build 0)  -->
<!DOCTYPE svg PUBLIC "-//W3C//DTD SVG 1.1//EN" "http://www.w3.org/Graphics/SVG/1.1/DTD/svg11.dtd">
<svg version="1.1" id="Layer_1" xmlns="http://www.w3.org/2000/svg" xmlns:xlink="http://www.w3.org/1999/xlink" x="0px" y="0px"
	 width="72px" height="72px" viewBox="0 0 72 72" enable-background="new 0 0 72 72" xml:space="preserve">
<path fill="#FFFFFF" d="M50.91,45.764c-2,0-3.834,0.711-5.262,1.896l-16.537-9.773c0.142-0.607,0.226-1.237,0.226-1.887
	c0-0.65-0.083-1.279-0.226-1.885l16.534-9.776c1.43,1.185,3.264,1.898,5.265,1.898c4.557,0,8.25-3.694,8.25-8.246
	c0-4.561-3.693-8.254-8.25-8.254c-4.556,0-8.252,3.693-8.252,8.254c0,0.649,0.084,1.276,0.225,1.882L26.35,29.649
	c-1.428-1.185-3.262-1.897-5.261-1.897c-4.556,0-8.249,3.695-8.249,8.249c0,4.551,3.692,8.252,8.249,8.252
	c2,0,3.833-0.715,5.262-1.898l16.535,9.771c-0.144,0.607-0.226,1.236-0.226,1.887c0,4.559,3.694,8.252,8.25,8.252
	s8.25-3.693,8.25-8.252C59.16,49.457,55.466,45.764,50.91,45.764z"/>
</svg>
