<?xml version="1.0" encoding="utf-8"?>
<!-- Generator: Adobe Illustrator 16.0.3, SVG Export Plug-In . SVG Version: 6.00 Build 0)  -->
<!DOCTYPE svg PUBLIC "-//W3C//DTD SVG 1.1//EN" "http://www.w3.org/Graphics/SVG/1.1/DTD/svg11.dtd">
<svg version="1.1" id="Layer_1" xmlns="http://www.w3.org/2000/svg" xmlns:xlink="http://www.w3.org/1999/xlink" x="0px" y="0px"
	 width="96px" height="96px" viewBox="0 0 96 96" enable-background="new 0 0 96 96" xml:space="preserve">
<path fill="#797979" fill-opacity="0.498" d="M47.999,16.25C30.492,16.25,16.25,30.493,16.25,48c0,17.508,14.242,31.75,31.749,31.75
	C65.507,79.75,79.75,65.508,79.75,48C79.75,30.493,65.507,16.25,47.999,16.25z M47.999,79C30.881,79,17,65.123,17,48
	s13.881-31,30.999-31C65.123,17,79,30.877,79,48S65.123,79,47.999,79z"/>
<path fill="#231F20" fill-opacity="0.3176" d="M48,17c-17.112,0-31,13.888-31,31c0,17.112,13.888,31,31,31c17.112,0,31-13.888,31-31
	C79,30.888,65.112,17,48,17z"/>
<path fill="#797979" fill-opacity="0.498" d="M48,20c-15.464,0-28,12.536-28,28c0,15.465,12.536,28,28,28s28-12.535,28-28
	C76,32.536,63.464,20,48,20z M48,75.25c-15.026,0-27.25-12.225-27.25-27.25c0-15.026,12.224-27.25,27.25-27.25
	c15.025,0,27.25,12.224,27.25,27.25C75.25,63.025,63.025,75.25,48,75.25z"/>
</svg>
