<?xml version="1.0" encoding="utf-8"?>
<!-- Generator: Adobe Illustrator 22.1.0, SVG Export Plug-In . SVG Version: 6.00 Build 0)  -->
<svg version="1.1" id="Layer_1" xmlns="http://www.w3.org/2000/svg" xmlns:xlink="http://www.w3.org/1999/xlink" x="0px" y="0px"
	 viewBox="0 0 96 96" style="enable-background:new 0 0 96 96;" xml:space="preserve">
<style type="text/css">
	.st0{opacity:0.9;fill:#FFFFFF;enable-background:new    ;}
	.st1{fill:#FFFFFF;}
</style>
<g id="Check">
	<g id="_x30_08_1_">
		<path id="_x39_0_x25_" class="st0" d="M48,22c14.4,0,26,11.6,26,26c0,14.4-11.6,26-26,26c-14.4,0-26-11.6-26-26
			C22,33.6,33.6,22,48,22"/>
		<path class="st1" d="M48,75c-14.9,0-27-12.1-27-27c0-14.9,12.1-27,27-27c14.9,0,27,12.1,27,27C75,62.9,62.9,75,48,75z M48,24
			c-13.8,0-24,10.2-24,24c0,13.8,10.2,24,24,24s24-10.2,24-24C72,34.2,61.8,24,48,24z"/>
	</g>
</g>
</svg>
