<?xml version="1.0" encoding="utf-8"?>
<!-- Generator: Adobe Illustrator 22.1.0, SVG Export Plug-In . SVG Version: 6.00 Build 0)  -->
<svg version="1.1" id="Layer_1" xmlns="http://www.w3.org/2000/svg" xmlns:xlink="http://www.w3.org/1999/xlink" x="0px" y="0px"
	 viewBox="0 0 96 96" style="enable-background:new 0 0 96 96;" xml:space="preserve">
<style type="text/css">
	.st0{fill:#FFFFFF;}
</style>
<g id="Radio">
	<g id="_x30_12">
		<path class="st0" d="M48,77c-16,0-29-13-29-29c0-16,13-29,29-29c16,0,29,13,29,29C77,64,64,77,48,77z M48,22
			c-14.9,0-26,11.1-26,26c0,14.9,11.1,26,26,26c14.9,0,26-11.1,26-26C74,33.1,62.9,22,48,22z"/>
		<path class="st0" d="M60,48c0,6.6-5.4,12-12,12c-6.6,0-12-5.4-12-12c0-6.6,5.4-12,12-12C54.6,36,60,41.4,60,48z"/>
	</g>
</g>
</svg>
