<?xml version="1.0" encoding="utf-8"?>
<!-- Generator: Adobe Illustrator 16.0.3, SVG Export Plug-In . SVG Version: 6.00 Build 0)  -->
<!DOCTYPE svg PUBLIC "-//W3C//DTD SVG 1.1//EN" "http://www.w3.org/Graphics/SVG/1.1/DTD/svg11.dtd">
<svg version="1.1" id="Layer_1" xmlns="http://www.w3.org/2000/svg" xmlns:xlink="http://www.w3.org/1999/xlink" x="0px" y="0px"
	 width="60px" height="60px" viewBox="0 0 60 60" enable-background="new 0 0 60 60" xml:space="preserve">
<path fill="#FFB400" d="M40.366,47.492c-0.376,0-0.752-0.11-1.078-0.327L30,40.973l-9.288,6.192
	c-0.679,0.452-1.566,0.433-2.224-0.048c-0.659-0.479-0.947-1.318-0.723-2.103l3.121-10.927l-7.735-6.806
	c-0.599-0.538-0.803-1.389-0.515-2.141c0.288-0.751,1.01-1.248,1.814-1.248h9.893l3.83-10.139c0.288-0.752,1.008-1.246,1.813-1.248
	c0.001,0,0.001,0,0.001,0c0.804,0,1.525,0.494,1.815,1.244l3.851,10.143h9.896c0.805,0,1.525,0.497,1.814,1.248
	c0.289,0.752,0.083,1.603-0.515,2.141l-7.736,6.806l3.122,10.927c0.224,0.784-0.064,1.624-0.723,2.103
	C41.171,47.365,40.769,47.492,40.366,47.492z"/>
</svg>
