<?xml version="1.0" encoding="utf-8"?>
<!-- Generator: Adobe Illustrator 22.1.0, SVG Export Plug-In . SVG Version: 6.00 Build 0)  -->
<svg version="1.1" id="Layer_1" xmlns="http://www.w3.org/2000/svg" xmlns:xlink="http://www.w3.org/1999/xlink" x="0px" y="0px"
	 viewBox="0 0 96 96" style="enable-background:new 0 0 96 96;" xml:space="preserve">
<style type="text/css">
	.st0{fill:#FFFFFF;}
</style>
<g id="Radio">
	<g id="_x30_15">
		<path class="st0" d="M48,78.5c-16.8,0-30.5-13.7-30.5-30.5c0-16.8,13.7-30.5,30.5-30.5c16.8,0,30.5,13.7,30.5,30.5
			C78.5,64.8,64.8,78.5,48,78.5z M48,20.5c-15.7,0-27.5,11.8-27.5,27.5c0,15.7,11.8,27.5,27.5,27.5S75.5,63.7,75.5,48
			C75.5,32.3,63.7,20.5,48,20.5z"/>
		<path class="st0" d="M66,48c0,9.9-8.1,18-18,18c-9.9,0-18-8.1-18-18c0-9.9,8.1-18,18-18C57.9,30,66,38.1,66,48z"/>
	</g>
</g>
</svg>
