<?xml version="1.0" encoding="utf-8"?>
<!-- Generator: Adobe Illustrator 22.1.0, SVG Export Plug-In . SVG Version: 6.00 Build 0)  -->
<svg version="1.1" id="Layer_1" xmlns="http://www.w3.org/2000/svg" xmlns:xlink="http://www.w3.org/1999/xlink" x="0px" y="0px"
	 viewBox="0 0 96 62" style="enable-background:new 0 0 96 62;" xml:space="preserve">
<style type="text/css">
	.st0{fill:#FFFFFF;}
</style>
<g id="Radio">
	<g id="_x30_13">
		<path class="st0" d="M48,60.5c-16.3,0-29.5-13.2-29.5-29.5C18.5,14.7,31.7,1.5,48,1.5c16.3,0,29.5,13.2,29.5,29.5
			C77.5,47.3,64.3,60.5,48,60.5z M48,4.5C32.8,4.5,21.5,15.8,21.5,31c0,15.2,11.3,26.5,26.5,26.5c15.2,0,26.5-11.3,26.5-26.5
			C74.5,15.8,63.2,4.5,48,4.5z"/>
		<path class="st0" d="M62,31c0,7.7-6.3,14-14,14c-7.7,0-14-6.3-14-14s6.3-14,14-14C55.7,17,62,23.3,62,31z"/>
	</g>
</g>
</svg>
