<?xml version="1.0" encoding="utf-8"?>
<!-- Generator: Adobe Illustrator 24.0.0, SVG Export Plug-In . SVG Version: 6.00 Build 0)  -->
<svg version="1.1" id="Layer_1" xmlns="http://www.w3.org/2000/svg" xmlns:xlink="http://www.w3.org/1999/xlink" x="0px" y="0px"
	 viewBox="0 0 120 120" style="enable-background:new 0 0 120 120;" xml:space="preserve">
<title>settings/main_icon/02_sound copy</title>
<desc>Created with Sketch.</desc>
<g id="settings_x2F_main_x5F_icon_x2F_02_x5F_sound-copy">
	<g id="Common_x2F_volume_x5F_media" transform="translate(8.000000, 8.000000)">
		<path id="Volume-_x2F_-Media" d="M50.3,28.3c1.8-1.8,3.6-1.2,3.6,1.2l0,0v44.4c0,3-1.5,3.6-3.6,1.8l0,0L35,61.9H24.5
			c-1.8,0-3.3-1.5-3.3-3.3l0,0V45.4c0-1.8,1.5-3.3,3.3-3.3l0,0H35L50.3,28.3z M73.4,28.9C86,41.8,86,62.5,73.4,75.4l0,0l-4.8-4.8
			c10.2-10.2,10.2-26.7,0-36.9l0,0L73.4,28.9z M63.8,38.5c3.6,3.6,5.7,8.4,5.7,13.8s-2.1,10.2-5.7,13.8l0,0L59,61.3
			c2.4-2.4,3.6-5.4,3.6-9c0-3.6-1.2-6.6-3.6-9l0,0L63.8,38.5z"/>
	</g>
</g>
</svg>
