<?xml version="1.0" encoding="utf-8"?><!DOCTYPE svg PUBLIC "-//W3C//DTD SVG 1.1//EN" "http://www.w3.org/Graphics/SVG/1.1/DTD/svg11.dtd"><svg width="2592" height="96" viewBox="0 0 2592 96" xmlns="http://www.w3.org/2000/svg" xmlns:xlink="http://www.w3.org/1999/xlink"><svg version="1.1" id="icon_sem_checkedtextview_check_to_on_mtrl_000" viewBox="0 0 96 96" xml:space="preserve" width="96" height="96" xmlns="http://www.w3.org/2000/svg"><style>.st0{fill:#fff}</style><g id="Check"><path class="st0" d="M48 79c-17.1 0-31-13.9-31-31s13.9-31 31-31 31 13.9 31 31-13.9 31-31 31zm0-59c-16 0-28 12-28 28s12 28 28 28 28-12 28-28-12-28-28-28z" id="_x30_00_1_"/></g></svg><svg version="1.1" id="icon_sem_checkedtextview_check_to_on_mtrl_001" x="96" viewBox="0 0 96 96" xml:space="preserve" width="96" height="96" xmlns="http://www.w3.org/2000/svg"><style>.st0{opacity:3.000000e-02}.st1{fill:#fff}</style><g id="Check"><g id="_x30_01_1_"><g id="_x33__x25_" class="st0"><path class="st1" d="M48 18.5c16.3 0 29.5 13.2 29.5 29.5S64.3 77.5 48 77.5 18.5 64.3 18.5 48 31.7 18.5 48 18.5"/></g><path class="st1" d="M48 78.5c-16.8 0-30.5-13.7-30.5-30.5S31.2 17.5 48 17.5 78.5 31.2 78.5 48 64.8 78.5 48 78.5zm0-58c-15.7 0-27.5 11.8-27.5 27.5S32.3 75.5 48 75.5 75.5 63.7 75.5 48 63.7 20.5 48 20.5z"/></g></g></svg><svg version="1.1" id="icon_sem_checkedtextview_check_to_on_mtrl_002" x="192" viewBox="0 0 96 96" xml:space="preserve" width="96" height="96" xmlns="http://www.w3.org/2000/svg"><style>.st0{opacity:5.000000e-02;enable-background:new}.st0,.st1{fill:#fff}</style><g id="Check"><g id="_x30_02_1_"><path id="_x35__x25_" class="st0" d="M48 19c16 0 29 13 29 29S64 77 48 77 19 64 19 48s13-29 29-29"/><path class="st1" d="M48 78c-16.5 0-30-13.5-30-30s13.5-30 30-30 30 13.5 30 30-13.5 30-30 30zm0-57c-15.4 0-27 11.6-27 27s11.6 27 27 27 27-11.6 27-27-11.6-27-27-27z"/></g></g></svg><svg version="1.1" id="icon_sem_checkedtextview_check_to_on_mtrl_003" x="288" viewBox="0 0 96 96" xml:space="preserve" width="96" height="96" xmlns="http://www.w3.org/2000/svg"><style>.st0{opacity:.1;enable-background:new}.st0,.st1{fill:#fff}</style><g id="Check"><g id="_x30_03_1_"><path id="_x31_0_x25_" class="st0" d="M48 19.5c15.7 0 28.5 12.8 28.5 28.5S63.7 76.5 48 76.5 19.5 63.7 19.5 48 32.3 19.5 48 19.5"/><path class="st1" d="M48 77.5c-16.3 0-29.5-13.2-29.5-29.5S31.7 18.5 48 18.5 77.5 31.7 77.5 48 64.3 77.5 48 77.5zm0-56c-15.2 0-26.5 11.3-26.5 26.5S32.8 74.5 48 74.5 74.5 63.2 74.5 48 63.2 21.5 48 21.5z"/></g></g></svg><svg version="1.1" id="icon_sem_checkedtextview_check_to_on_mtrl_004" x="384" viewBox="0 0 96 96" xml:space="preserve" width="96" height="96" xmlns="http://www.w3.org/2000/svg"><style>.st0{opacity:.2}.st1{fill:#fff}</style><g id="Check"><g id="_x30_04_1_"><g id="_x32_0_x25_" class="st0"><path class="st1" d="M48 20c15.5 0 28 12.5 28 28S63.5 76 48 76 20 63.5 20 48s12.5-28 28-28"/></g><path class="st1" d="M48 77c-16 0-29-13-29-29s13-29 29-29 29 13 29 29-13 29-29 29zm0-55c-14.9 0-26 11.1-26 26s11.1 26 26 26 26-11.1 26-26-11.1-26-26-26z"/></g></g></svg><svg version="1.1" id="icon_sem_checkedtextview_check_to_on_mtrl_005" x="480" viewBox="0 0 96 96" xml:space="preserve" width="96" height="96" xmlns="http://www.w3.org/2000/svg"><style>.st0{opacity:.5;enable-background:new}.st0,.st1{fill:#fff}</style><g id="Check"><g id="_x30_05_1_"><path id="_x35_0_x25_" class="st0" d="M48 20.5c15.2 0 27.5 12.3 27.5 27.5S63.2 75.5 48 75.5 20.5 63.2 20.5 48 32.8 20.5 48 20.5"/><path class="st1" d="M48 76.5c-15.7 0-28.5-12.8-28.5-28.5S32.3 19.5 48 19.5 76.5 32.3 76.5 48 63.7 76.5 48 76.5zm0-54c-14.6 0-25.5 10.9-25.5 25.5S33.4 73.5 48 73.5 73.5 62.6 73.5 48 62.6 22.5 48 22.5z"/></g></g></svg><svg version="1.1" id="icon_sem_checkedtextview_check_to_on_mtrl_006" x="576" viewBox="0 0 96 96" xml:space="preserve" width="96" height="96" xmlns="http://www.w3.org/2000/svg"><style>.st0{opacity:.7;enable-background:new}.st0,.st1{fill:#fff}</style><g id="Check"><g id="_x30_06_1_"><path id="_x37_0_x25_" class="st0" d="M48 21c14.9 0 27 12.1 27 27S62.9 75 48 75 21 62.9 21 48s12.1-27 27-27"/><path class="st1" d="M48 76c-15.4 0-28-12.6-28-28s12.6-28 28-28 28 12.6 28 28-12.6 28-28 28zm0-53c-14.3 0-25 10.7-25 25s10.7 25 25 25 25-10.7 25-25-10.7-25-25-25z"/></g></g></svg><svg version="1.1" id="icon_sem_checkedtextview_check_to_on_mtrl_007" x="672" viewBox="0 0 96 96" xml:space="preserve" width="96" height="96" xmlns="http://www.w3.org/2000/svg"><style>.st0{opacity:.8;enable-background:new}.st0,.st1{fill:#fff}</style><g id="Check"><g id="_x30_07_1_"><path id="_x38_0_x25_" class="st0" d="M48 21.5c14.6 0 26.5 11.9 26.5 26.5S62.6 74.5 48 74.5 21.5 62.6 21.5 48 33.4 21.5 48 21.5"/><path class="st1" d="M48 75.5c-15.2 0-27.5-12.3-27.5-27.5S32.8 20.5 48 20.5 75.5 32.8 75.5 48 63.2 75.5 48 75.5zm0-52c-14.1 0-24.5 10.4-24.5 24.5S33.9 72.5 48 72.5 72.5 62.1 72.5 48 62.1 23.5 48 23.5z"/></g></g></svg><svg version="1.1" id="icon_sem_checkedtextview_check_to_on_mtrl_008" x="768" viewBox="0 0 96 96" xml:space="preserve" width="96" height="96" xmlns="http://www.w3.org/2000/svg"><style>.st0{opacity:.9;enable-background:new}.st0,.st1{fill:#fff}</style><g id="Check"><g id="_x30_08_1_"><path id="_x39_0_x25_" class="st0" d="M48 22c14.4 0 26 11.6 26 26S62.4 74 48 74 22 62.4 22 48s11.6-26 26-26"/><path class="st1" d="M48 75c-14.9 0-27-12.1-27-27s12.1-27 27-27 27 12.1 27 27-12.1 27-27 27zm0-51c-13.8 0-24 10.2-24 24s10.2 24 24 24 24-10.2 24-24-10.2-24-24-24z"/></g></g></svg><svg version="1.1" id="icon_sem_checkedtextview_check_to_on_mtrl_009" x="864" viewBox="0 0 96 96" xml:space="preserve" width="96" height="96" xmlns="http://www.w3.org/2000/svg"><style>.st0{opacity:.95;enable-background:new}.st0,.st1{fill:#fff}</style><g id="Check"><g id="_x30_09_1_"><path id="_x39_5" class="st0" d="M48 22c14.4 0 26 11.6 26 26S62.4 74 48 74 22 62.4 22 48s11.6-26 26-26"/><path class="st1" d="M48 75c-14.9 0-27-12.1-27-27s12.1-27 27-27 27 12.1 27 27-12.1 27-27 27zm0-51c-13.8 0-24 10.2-24 24s10.2 24 24 24 24-10.2 24-24-10.2-24-24-24z"/></g></g></svg><svg width="96" height="96" viewBox="0 0 96 96" id="icon_sem_checkedtextview_check_to_on_mtrl_010" x="960" xmlns="http://www.w3.org/2000/svg"><path fill="#FFF" d="M47.993 21.509c-14.635 0-26.5 11.865-26.5 26.498 0 14.638 11.865 26.502 26.5 26.502 14.636 0 26.501-11.864 26.501-26.502 0-14.633-11.865-26.498-26.501-26.498zm-6.08 40.85l-9.984-9.873 2.823-2.789 7.161 7.078L57.06 41.796l2.823 2.792-17.97 17.771z"/></svg><svg width="96" height="96" viewBox="0 0 96 96" id="icon_sem_checkedtextview_check_to_on_mtrl_011" x="1056" xmlns="http://www.w3.org/2000/svg"><path fill="#FFF" d="M48 21c-14.911 0-27 12.089-27 26.998C21 62.911 33.089 75 48 75c14.912 0 27-12.089 27-27.002C75 33.089 62.912 21 48 21zm-6.083 41.359l-10.073-9.963 2.849-2.813 7.225 7.142 15.283-15.112 2.848 2.817-18.132 17.929z"/></svg><svg width="96" height="96" viewBox="0 0 96 96" id="icon_sem_checkedtextview_check_to_on_mtrl_012" x="1152" xmlns="http://www.w3.org/2000/svg"><path fill="#FFF" d="M48 20.5c-15.188 0-27.5 12.313-27.5 27.498C20.5 63.188 32.813 75.5 48 75.5c15.188 0 27.5-12.313 27.5-27.502C75.5 32.813 63.188 20.5 48 20.5zm-6.09 41.859L31.39 51.956l2.975-2.938 7.544 7.457 15.959-15.782 2.975 2.942L41.91 62.359z"/></svg><svg width="96" height="96" viewBox="0 0 96 96" id="icon_sem_checkedtextview_check_to_on_mtrl_013" x="1248" xmlns="http://www.w3.org/2000/svg"><path fill="#FFF" d="M48 20c-15.464 0-28 12.537-28 27.998C20 63.464 32.536 76 48 76s28-12.536 28-28.002C76 32.537 63.464 20 48 20zm-6.085 42.359l-11.29-11.166 3.193-3.153 8.097 8.004 17.128-16.937 3.191 3.158-20.319 20.094z"/></svg><svg width="96" height="96" viewBox="0 0 96 96" id="icon_sem_checkedtextview_check_to_on_mtrl_014" x="1344" xmlns="http://www.w3.org/2000/svg"><path fill="#FFF" d="M48 19.5c-15.74 0-28.5 12.76-28.5 28.498C19.5 63.74 32.26 76.5 48 76.5s28.5-12.76 28.5-28.502C76.5 32.26 63.74 19.5 48 19.5zm-6.109 42.859L29.552 50.157l3.49-3.448 8.849 8.748 18.72-18.511 3.488 3.451-22.208 21.962z"/></svg><svg width="96" height="96" viewBox="0 0 96 96" id="icon_sem_checkedtextview_check_to_on_mtrl_015" x="1440" xmlns="http://www.w3.org/2000/svg"><path fill="#FFF" d="M48 19c-16.017 0-29 12.984-29 28.998C19 64.018 31.983 77 48 77c16.018 0 29-12.982 29-29.002C77 31.984 64.018 19 48 19zm-6.085 43.359L28.706 49.297l3.736-3.69 9.473 9.364 20.04-19.816 3.734 3.694-23.774 23.51z"/></svg><svg width="96" height="96" viewBox="0 0 96 96" id="icon_sem_checkedtextview_check_to_on_mtrl_016" x="1536" xmlns="http://www.w3.org/2000/svg"><path fill="#FFF" d="M48 18.5c-16.293 0-29.5 13.208-29.5 29.498C18.5 64.293 31.707 77.5 48 77.5s29.5-13.207 29.5-29.502C77.5 31.708 64.293 18.5 48 18.5zm-6.104 43.859L28.063 48.68l3.913-3.866 9.921 9.808 20.988-20.753 3.912 3.869-24.901 24.621z"/></svg><svg width="96" height="96" viewBox="0 0 96 96" id="icon_sem_checkedtextview_check_to_on_mtrl_017" x="1632" xmlns="http://www.w3.org/2000/svg"><path fill="#FFF" d="M48 18c-16.569 0-30 13.431-30 29.998C18 64.568 31.431 78 48 78c16.568 0 30-13.432 30-30.002C78 31.431 64.568 18 48 18zm-6.096 44.359L27.52 48.134l4.068-4.02 10.316 10.198 21.825-21.58 4.066 4.023-25.891 25.604z"/></svg><svg width="96" height="96" viewBox="0 0 96 96" id="icon_sem_checkedtextview_check_to_on_mtrl_018" x="1728" xmlns="http://www.w3.org/2000/svg"><path fill="#FFF" d="M48 17.5c-16.846 0-30.5 13.655-30.5 30.498C17.5 64.846 31.154 78.5 48 78.5s30.5-13.654 30.5-30.502C78.5 31.155 64.846 17.5 48 17.5zm-6.106 44.859L27.141 47.77l4.172-4.123 10.58 10.46 22.382-22.133 4.172 4.126-26.553 26.259z"/></svg><svg width="96" height="96" viewBox="0 0 96 96" id="icon_sem_checkedtextview_check_to_on_mtrl_019" x="1824" xmlns="http://www.w3.org/2000/svg"><path fill="#FFF" d="M48 17c-17.122 0-31 13.878-31 30.998C17 65.122 30.878 79 48 79s31-13.878 31-31.002C79 30.878 65.122 17 48 17zm-6.09 45.359L26.881 47.497l4.25-4.2L41.91 53.953l22.803-22.548 4.25 4.204-27.053 26.75z"/></svg><svg width="96" height="96" viewBox="0 0 96 96" id="icon_sem_checkedtextview_check_to_on_mtrl_020" x="1920" xmlns="http://www.w3.org/2000/svg"><path fill="#FFF" d="M48 17c-17.122 0-31 13.878-31 30.998C17 65.122 30.878 79 48 79s31-13.878 31-31.002C79 30.878 65.122 17 48 17zm-6.09 45.359L26.881 47.497l4.25-4.2L41.91 53.953l22.803-22.548 4.25 4.204-27.053 26.75z"/></svg><svg width="96" height="96" viewBox="0 0 96 96" id="icon_sem_checkedtextview_check_to_on_mtrl_021" x="2016" xmlns="http://www.w3.org/2000/svg"><path fill="#FFF" d="M48 17c-17.122 0-31 13.878-31 30.998C17 65.122 30.878 79 48 79s31-13.878 31-31.002C79 30.878 65.122 17 48 17zm-6.079 45.359L27.038 47.64l4.209-4.159 10.674 10.553 22.583-22.331 4.209 4.164-26.792 26.492z"/></svg><svg width="96" height="96" viewBox="0 0 96 96" id="icon_sem_checkedtextview_check_to_on_mtrl_022" x="2112" xmlns="http://www.w3.org/2000/svg"><path fill="#FFF" d="M48 17c-17.122 0-31 13.878-31 30.998C17 65.122 30.878 79 48 79s31-13.878 31-31.002C79 30.878 65.122 17 48 17zm-6.072 45.359L27.1 47.695l4.194-4.144 10.634 10.514 22.498-22.247 4.193 4.148-26.691 26.393z"/></svg><svg width="96" height="96" viewBox="0 0 96 96" id="icon_sem_checkedtextview_check_to_on_mtrl_023" x="2208" xmlns="http://www.w3.org/2000/svg"><path fill="#FFF" d="M48 17c-17.122 0-31 13.878-31 30.998C17 65.122 30.878 79 48 79s31-13.878 31-31.002C79 30.878 65.122 17 48 17zm-6.08 45.359L27.209 47.811 31.37 43.7l10.55 10.431L64.24 32.06l4.16 4.115-26.48 26.184z"/></svg><svg width="96" height="96" viewBox="0 0 96 96" id="icon_sem_checkedtextview_check_to_on_mtrl_024" x="2304" xmlns="http://www.w3.org/2000/svg"><path fill="#FFF" d="M48 17c-17.122 0-31 13.878-31 30.998C17 65.122 30.878 79 48 79s31-13.878 31-31.002C79 30.878 65.122 17 48 17zm-6.174 45.359L27.209 47.905l4.134-4.084 10.482 10.363L64 32.255l4.134 4.089-26.308 26.015z"/></svg><svg width="96" height="96" viewBox="0 0 96 96" id="icon_sem_checkedtextview_check_to_on_mtrl_025" x="2400" xmlns="http://www.w3.org/2000/svg"><path fill="#FFF" d="M48 17c-17.122 0-31 13.878-31 30.998C17 65.122 30.878 79 48 79s31-13.878 31-31.002C79 30.878 65.122 17 48 17zm-6.087 45.359L27.428 48.035l4.097-4.047 10.388 10.27 21.976-21.731 4.098 4.052-26.074 25.78z"/></svg><svg width="96" height="96" viewBox="0 0 96 96" id="icon_sem_checkedtextview_check_to_on_mtrl_026" x="2496" xmlns="http://www.w3.org/2000/svg"><path fill="#FFF" d="M47.999 17C30.879 17 17 30.877 17 48c0 17.124 13.879 31 30.999 31C65.122 79 79 65.124 79 48c0-17.123-13.878-31-31.001-31zm-6.094 45.359L27.599 48.214l4.046-4L41.906 54.36 63.61 32.896l4.048 4.001-25.753 25.462z"/></svg></svg>