<?xml version="1.0" encoding="utf-8"?>
<!-- Generator: Adobe Illustrator 22.1.0, SVG Export Plug-In . SVG Version: 6.00 Build 0)  -->
<svg version="1.1" id="Layer_1" xmlns="http://www.w3.org/2000/svg" xmlns:xlink="http://www.w3.org/1999/xlink" x="0px" y="0px"
	 viewBox="0 0 96 62" style="enable-background:new 0 0 96 62;" xml:space="preserve">
<style type="text/css">
	.st0{fill:#FFFFFF;}
</style>
<g id="Radio">
	<g id="_x30_23">
		<path class="st0" d="M48,62c-17.1,0-31-13.9-31-31C17,13.9,30.9,0,48,0c17.1,0,31,13.9,31,31C79,48.1,65.1,62,48,62z M48,3
			C32.6,3,20,15.6,20,31c0,15.4,12.6,28,28,28c15.4,0,28-12.6,28-28C76,15.6,63.4,3,48,3z"/>
		<path class="st0" d="M65.4,31c0,9.6-7.8,17.4-17.4,17.4c-9.6,0-17.4-7.8-17.4-17.4c0-9.6,7.8-17.4,17.4-17.4
			C57.6,13.6,65.4,21.4,65.4,31z"/>
	</g>
</g>
</svg>
