<?xml version="1.0" encoding="UTF-8" standalone="no"?>
<!-- Generator: Adobe Illustrator 16.0.4, SVG Export Plug-In . SVG Version: 6.00 Build 0)  -->

<svg
   xmlns:dc="http://purl.org/dc/elements/1.1/"
   xmlns:cc="http://creativecommons.org/ns#"
   xmlns:rdf="http://www.w3.org/1999/02/22-rdf-syntax-ns#"
   xmlns:svg="http://www.w3.org/2000/svg"
   xmlns="http://www.w3.org/2000/svg"
   xmlns:sodipodi="http://sodipodi.sourceforge.net/DTD/sodipodi-0.dtd"
   xmlns:inkscape="http://www.inkscape.org/namespaces/inkscape"
   version="1.1"
   id="Layer_1"
   x="0px"
   y="0px"
   width="85px"
   height="85px"
   viewBox="0 0 85 85"
   enable-background="new 0 0 85 85"
   xml:space="preserve"
   inkscape:version="0.48.4 r9939"
   sodipodi:docname="devices-wearable.svg"><metadata
     id="metadata3128"><rdf:RDF><cc:Work
         rdf:about=""><dc:format>image/svg+xml</dc:format><dc:type
           rdf:resource="http://purl.org/dc/dcmitype/StillImage" /></cc:Work></rdf:RDF></metadata><defs
     id="defs3126" /><sodipodi:namedview
     pagecolor="#ffffff"
     bordercolor="#666666"
     borderopacity="1"
     objecttolerance="10"
     gridtolerance="10"
     guidetolerance="10"
     inkscape:pageopacity="0"
     inkscape:pageshadow="2"
     inkscape:window-width="812"
     inkscape:window-height="668"
     id="namedview3124"
     showgrid="false"
     inkscape:zoom="2.7764706"
     inkscape:cx="42.5"
     inkscape:cy="42.5"
     inkscape:window-x="0"
     inkscape:window-y="24"
     inkscape:window-maximized="0"
     inkscape:current-layer="Layer_1" /><g
     id="g3118"
     style="fill:#338000"><path
       fill="#A5A5A4"
       d="M61.633,41.653c0-5.978-3.2-11.31-7.633-14.653V15.556C54,13.04,51.961,11,49.445,11H35.724   c-2.516,0-4.556,2.04-4.556,4.556v12.416C27.393,31.327,25,36.205,25,41.654c0,5.448,2.393,10.327,6.168,13.683v12.608   c0,2.516,2.271,5.055,4.787,5.055h13.722C52.191,73,54,70.461,54,67.945V56C58.432,52.656,61.633,47.633,61.633,41.653z    M28.417,41.653c0-8.216,6.684-14.9,14.899-14.9s14.9,6.685,14.9,14.9c0,8.215-6.687,14.9-14.9,14.9   C35.101,56.555,28.417,49.869,28.417,41.653z"
       id="path3120"
       style="fill:#338000" /><path
       fill="#A5A5A4"
       d="M42.606,43.949C42.733,43.979,42.864,44,43,44h8c0.941,0,1.361-1.129,1.361-2.072   c0-0.943-0.766-1.708-1.707-1.708h-5.803v-7.154c0-0.943-0.764-1.708-1.707-1.708C42.202,31.358,41,32.058,41,33l0.043,9.256   C41.043,43.148,41.731,43.875,42.606,43.949z"
       id="path3122"
       style="fill:#338000" /></g></svg>