<?xml version="1.0" encoding="UTF-8" standalone="no"?>
<!-- Generator: Adobe Illustrator 16.0.4, SVG Export Plug-In . SVG Version: 6.00 Build 0)  -->

<svg
   xmlns:dc="http://purl.org/dc/elements/1.1/"
   xmlns:cc="http://creativecommons.org/ns#"
   xmlns:rdf="http://www.w3.org/1999/02/22-rdf-syntax-ns#"
   xmlns:svg="http://www.w3.org/2000/svg"
   xmlns="http://www.w3.org/2000/svg"
   xmlns:sodipodi="http://sodipodi.sourceforge.net/DTD/sodipodi-0.dtd"
   xmlns:inkscape="http://www.inkscape.org/namespaces/inkscape"
   version="1.1"
   id="Layer_1"
   x="0px"
   y="0px"
   width="85px"
   height="85px"
   viewBox="0 0 85 85"
   enable-background="new 0 0 85 85"
   xml:space="preserve"
   inkscape:version="0.48.4 r9939"
   sodipodi:docname="devices-tv.svg"><metadata
     id="metadata3115"><rdf:RDF><cc:Work
         rdf:about=""><dc:format>image/svg+xml</dc:format><dc:type
           rdf:resource="http://purl.org/dc/dcmitype/StillImage" /></cc:Work></rdf:RDF></metadata><defs
     id="defs3113" /><sodipodi:namedview
     pagecolor="#ffffff"
     bordercolor="#666666"
     borderopacity="1"
     objecttolerance="10"
     gridtolerance="10"
     guidetolerance="10"
     inkscape:pageopacity="0"
     inkscape:pageshadow="2"
     inkscape:window-width="1071"
     inkscape:window-height="778"
     id="namedview3111"
     showgrid="false"
     inkscape:zoom="2.7764706"
     inkscape:cx="103.9089"
     inkscape:cy="42.5"
     inkscape:window-x="0"
     inkscape:window-y="24"
     inkscape:window-maximized="0"
     inkscape:current-layer="Layer_1" /><path
     fill="#A5A5A4"
     d="M65,21v31H20V21H65 M66,16H19c-2.258,0-3.938,1.587-3.938,3.851v33.161C15.062,55.275,16.742,57,19,57h47  c2.258,0,3.938-1.725,3.938-3.988V19.851C69.938,17.587,68.258,16,66,16L66,16z"
     id="path3105"
     style="fill:#0044aa" /><path
     fill="#A5A5A4"
     d="M53.349,66c0,0.532-0.431,0.963-0.963,0.963H31.962C31.431,66.963,31,66.532,31,66v-3.037  C31,62.43,31.432,62,31.962,62h20.424c0.532,0,0.963,0.43,0.963,0.963V66z"
     id="path3107"
     style="fill:#0044aa" /><path
     fill="#A5A5A4"
     d="M40.741,66C40.271,66,40,66.006,40,65.785V56c0-0.222,0.271-0.59,0.741-0.59h3.407  c0.471,0,0.852,0.182,0.852,0.402v9.785C45,65.82,44.619,66,44.148,66H40.741z"
     id="path3109"
     style="fill:#0044aa" /></svg>