<?xml version="1.0" encoding="utf-8"?>
<!-- Generator: Adobe Illustrator 22.1.0, SVG Export Plug-In . SVG Version: 6.00 Build 0)  -->
<svg version="1.1" id="Layer_1" xmlns="http://www.w3.org/2000/svg" xmlns:xlink="http://www.w3.org/1999/xlink" x="0px" y="0px"
	 viewBox="0 0 96 62" style="enable-background:new 0 0 96 62;" xml:space="preserve">
<style type="text/css">
	.st0{opacity:0.5;fill:#FFFFFF;enable-background:new    ;}
	.st1{fill:#FFFFFF;}
</style>
<g id="Check">
	<g id="_x30_05_1_">
		<path id="_x35_0_x25_" class="st0" d="M48,3.5c15.2,0,27.5,12.3,27.5,27.5c0,15.2-12.3,27.5-27.5,27.5S20.5,46.2,20.5,31
			C20.5,15.8,32.8,3.5,48,3.5"/>
		<path class="st1" d="M48,59.5c-15.7,0-28.5-12.8-28.5-28.5C19.5,15.3,32.3,2.5,48,2.5S76.5,15.3,76.5,31
			C76.5,46.7,63.7,59.5,48,59.5z M48,5.6C34,5.6,22.6,17,22.6,31C22.6,45,34,56.4,48,56.4C62,56.4,73.4,45,73.4,31
			C73.4,17,62,5.6,48,5.6z"/>
	</g>
</g>
</svg>
