<?xml version="1.0" encoding="UTF-8"?>
<svg width="24px" height="24px" viewBox="0 0 24 24" version="1.1" xmlns="http://www.w3.org/2000/svg" xmlns:xlink="http://www.w3.org/1999/xlink">
    <!-- Generator: Sketch 53.1 (72631) - https://sketchapp.com -->
    <title>Mobile/Dark_theme/ICON/01_ACTION_BAR/Title_More</title>
    <desc>Created with Sketch.</desc>
    <g id="Mobile/Dark_theme/ICON/01_ACTION_BAR/Title_More" stroke="none" stroke-width="1" fill="none" fill-rule="evenodd">
        <path d="M11.9999187,4 C13.1040731,4 14.00005,4.896 14.00005,6 C14.00005,7.104 13.1040731,8 11.9999187,8 C10.8960269,8 10.00005,7.104 10.00005,6 C10.00005,4.896 10.8960269,4 11.9999187,4 Z M11.9999187,10 C13.1040731,10 14.00005,10.896 14.00005,12 C14.00005,13.104 13.1040731,14 11.9999187,14 C10.8960269,14 10.00005,13.104 10.00005,12 C10.00005,10.896 10.8960269,10 11.9999187,10 Z M11.9999187,16 C13.1040731,16 14.00005,16.896 14.00005,18 C14.00005,19.104 13.1040731,20 11.9999187,20 C10.8960269,20 10.00005,19.104 10.00005,18 C10.00005,16.896 10.8960269,16 11.9999187,16 Z" id="Combined-Shape" fill="#FAFAFA"></path>
    </g>
</svg>