<?xml version="1.0" encoding="UTF-8"?>
<svg width="24px" height="24px" viewBox="0 0 24 24" version="1.1" xmlns="http://www.w3.org/2000/svg" xmlns:xlink="http://www.w3.org/1999/xlink">
    <!-- Generator: Sketch 53.1 (72631) - https://sketchapp.com -->
    <title>Mobile/Dark_theme/ICON/01_ACTION_BAR/Title_Search</title>
    <desc>Created with Sketch.</desc>
    <g id="Mobile/Dark_theme/ICON/01_ACTION_BAR/Title_Search" stroke="none" stroke-width="1" fill="none" fill-rule="evenodd">
        <path d="M5,10.4996003 C5,7.46721252 7.46694605,5 10.4990674,5 C13.5322545,5 16,7.46721252 16,10.4996003 C16,13.532521 13.5322545,16 10.4990674,16 C7.46694605,16 5,13.532521 5,10.4996003 L5,10.4996003 Z M21,19.4237908 L16.6216983,15.045747 C17.5542673,13.7889072 18.1071014,12.2346256 18.1071014,10.5531637 C18.1071014,6.38820494 14.7181225,3 10.5526478,3 C6.38820494,3 3,6.38820494 3,10.5531637 C3,14.7183805 6.38820494,18.1071014 10.5526478,18.1071014 C12.2341096,18.1071014 13.7889072,17.5542673 15.0452311,16.6216983 L19.4237908,21 L21,19.4237908 Z" id="Fill-1" fill="#FAFAFA"></path>
    </g>
</svg>