<?xml version="1.0" encoding="utf-8"?>
<!-- Generator: Adobe Illustrator 24.0.0, SVG Export Plug-In . SVG Version: 6.00 Build 0)  -->
<svg version="1.1" id="Layer_1" xmlns="http://www.w3.org/2000/svg" xmlns:xlink="http://www.w3.org/1999/xlink" x="0px" y="0px"
	 viewBox="0 0 120 120" style="enable-background:new 0 0 120 120;" xml:space="preserve">
<title>settings/main_icon/04_display copy</title>
<desc>Created with Sketch.</desc>
<g id="settings_x2F_main_x5F_icon_x2F_04_x5F_display-copy">
	<g id="Common_x2F_brightness" transform="translate(6.000000, 6.000000)">
		<path id="Brightness" d="M57.7,77.8v10.5h-7V77.8H57.7z M34.5,68.1l5,4.9l-7.3,7.5l-5-4.9L34.5,68.1z M73.5,67.9l7.3,7.5l-5,4.9
			l-7.3-7.5L73.5,67.9z M54.2,39c8.3,0,15.1,6.7,15.1,15s-6.7,15.1-15.1,15.1s-15-6.7-15-15.1S45.9,39,54.2,39z M88.1,51.6v7H78v-7
			H88.1z M30,51.6v7H19.9v-7H30z M32.5,27.7l7.3,7.5l-5,4.9l-7.3-7.5L32.5,27.7z M75.7,27.5l5,4.9l-7.3,7.5l-5-4.9L75.7,27.5z
			 M57.7,19.7v10.5h-7V19.7H57.7z"/>
	</g>
</g>
</svg>
