<?xml version="1.0" encoding="utf-8"?>
<!-- Generator: Adobe Illustrator 16.0.3, SVG Export Plug-In . SVG Version: 6.00 Build 0)  -->
<!DOCTYPE svg PUBLIC "-//W3C//DTD SVG 1.1//EN" "http://www.w3.org/Graphics/SVG/1.1/DTD/svg11.dtd">
<svg version="1.1" id="Layer_1" xmlns="http://www.w3.org/2000/svg" xmlns:xlink="http://www.w3.org/1999/xlink" x="0px" y="0px"
	 width="72px" height="72px" viewBox="0 0 72 72" enable-background="new 0 0 72 72" xml:space="preserve">
<path fill="#FFFFFF" d="M57.379,34.732l-5.22-0.078c-0.13,8.72-7.209,15.55-16.116,15.55c-9.548,0-16.202-8.176-16.202-15.512
	h-5.221c0,9.107,7.584,19.174,18.769,20.572v9.988h5.22v-9.969C49.166,54.075,57.22,45.485,57.379,34.732z"/>
<path fill="#FFFFFF" d="M36,44.958c5.651,0,10.249-4.621,10.249-10.298l0.029-17.612c0-5.68-4.611-10.301-10.278-10.301
	c-5.667,0-10.278,4.621-10.278,10.301v17.609C25.721,40.337,30.333,44.958,36,44.958z"/>
</svg>
