<?xml version="1.0" encoding="utf-8"?>
<!-- Generator: Adobe Illustrator 24.0.0, SVG Export Plug-In . SVG Version: 6.00 Build 0)  -->
<svg version="1.1" id="Layer_1" xmlns="http://www.w3.org/2000/svg" xmlns:xlink="http://www.w3.org/1999/xlink" x="0px" y="0px"
	 viewBox="0 0 120 120" style="enable-background:new 0 0 120 120;" xml:space="preserve" fill="#53a4ff">
<title>settings/main_icon/01_connections copy</title>
<desc>Created with Sketch.</desc>
<g id="settings_x2F_main_x5F_icon_x2F_01_x5F_connections-copy">
	<g id="Settings_x2F_Menu-tree_x2F_connections" transform="translate(8.000000, 8.000000)">
		<path id="Connections" d="M52,68.4c1.2,0,2.4,0.5,3.3,1.4c0.7,0.7,1.1,1.6,1.3,2.5c0,0.2,0.1,0.3,0.1,0.5c0.1,1.3-0.4,2.6-1.3,3.6
			c-0.9,0.9-2.1,1.4-3.3,1.4c-1.2,0-2.4-0.5-3.3-1.4c-1-1.1-1.5-2.5-1.3-4c0-0.1,0-0.2,0.1-0.3c0.2-0.9,0.6-1.7,1.2-2.3
			C49.5,68.8,50.7,68.4,52,68.4z M51.9,55.1c6,0,11.4,2.5,15.2,6.5l0,0l-4.8,4.8c-2.6-2.8-6.3-4.5-10.5-4.5c-4.1,0-7.7,1.7-10.3,4.4
			l0,0l-4.8-4.8C40.7,57.5,46,55.1,51.9,55.1z M51.9,40.6c10,0,19,4.1,25.5,10.7l0,0l-4.7,4.7c-5.3-5.4-12.6-8.8-20.7-8.8
			c-8.1,0-15.4,3.3-20.6,8.6l0,0l-4.7-4.7C33,44.7,42,40.6,51.9,40.6z M51.9,26.3c13.9,0,26.5,5.7,35.6,14.9l0,0L82.8,46
			C74.9,38,64,33,51.9,33c-12,0-22.9,4.9-30.7,12.8l0,0l-4.7-4.7C25.5,32,38.1,26.3,51.9,26.3z"/>
	</g>
</g>
</svg>
