<?xml version="1.0" encoding="utf-8"?>
<!-- Generator: Adobe Illustrator 22.1.0, SVG Export Plug-In . SVG Version: 6.00 Build 0)  -->
<svg version="1.1" id="Layer_1" xmlns="http://www.w3.org/2000/svg" xmlns:xlink="http://www.w3.org/1999/xlink" x="0px" y="0px"
	 viewBox="0 0 96 62" style="enable-background:new 0 0 96 62;" xml:space="preserve">
<style type="text/css">
	.st0{fill:#FFFFFF;}
</style>
<g id="Radio">
	<g id="_x30_12">
		<path class="st0" d="M48,60c-16,0-29-13-29-29C19,15,32,2,48,2c16,0,29,13,29,29C77,47,64,60,48,60z M48,5C33.1,5,22,16.1,22,31
			c0,14.9,11.1,26,26,26c14.9,0,26-11.1,26-26C74,16.1,62.9,5,48,5z"/>
		<path class="st0" d="M60,31c0,6.6-5.4,12-12,12c-6.6,0-12-5.4-12-12c0-6.6,5.4-12,12-12C54.6,19,60,24.4,60,31z"/>
	</g>
</g>
</svg>
