<?xml version="1.0" encoding="utf-8"?>
<!-- Generator: Adobe Illustrator 22.1.0, SVG Export Plug-In . SVG Version: 6.00 Build 0)  -->
<svg version="1.1" id="Layer_1" xmlns="http://www.w3.org/2000/svg" xmlns:xlink="http://www.w3.org/1999/xlink" x="0px" y="0px"
	 viewBox="0 0 96 96" style="enable-background:new 0 0 96 96;" xml:space="preserve">
<style type="text/css">
	.st0{opacity:5.000000e-02;fill:#FFFFFF;enable-background:new    ;}
	.st1{fill:#FFFFFF;}
</style>
<g id="Check">
	<g id="_x30_02_1_">
		<path id="_x35__x25_" class="st0" d="M48,19c16,0,29,13,29,29c0,16-13,29-29,29c-16,0-29-13-29-29C19,32,32,19,48,19"/>
		<path class="st1" d="M48,78c-16.5,0-30-13.5-30-30c0-16.5,13.5-30,30-30s30,13.5,30,30C78,64.5,64.5,78,48,78z M48,21
			c-15.4,0-27,11.6-27,27c0,15.4,11.6,27,27,27s27-11.6,27-27C75,32.6,63.4,21,48,21z"/>
	</g>
</g>
</svg>
