<?xml version="1.0" encoding="utf-8"?>
<!-- Generator: Adobe Illustrator 16.0.3, SVG Export Plug-In . SVG Version: 6.00 Build 0)  -->
<!DOCTYPE svg PUBLIC "-//W3C//DTD SVG 1.1//EN" "http://www.w3.org/Graphics/SVG/1.1/DTD/svg11.dtd">
<svg version="1.1" id="Layer_1" xmlns="http://www.w3.org/2000/svg" xmlns:xlink="http://www.w3.org/1999/xlink" x="0px" y="0px"
	 width="492px" height="6px" viewBox="0 0 492 6" enable-background="new 0 0 492 6" xml:space="preserve">
<line fill="none" stroke="#00A9BF" stroke-width="7" stroke-miterlimit="10" x1="1.328" y1="9.463" x2="15.782" y2="-2.981"/>
<line fill="none" stroke="#00A9BF" stroke-width="7" stroke-miterlimit="10" x1="26.328" y1="9.463" x2="40.782" y2="-2.981"/>
<line fill="none" stroke="#00A9BF" stroke-width="7" stroke-miterlimit="10" x1="51.328" y1="9.463" x2="65.782" y2="-2.981"/>
<line fill="none" stroke="#00A9BF" stroke-width="7" stroke-miterlimit="10" x1="51.328" y1="9.463" x2="65.782" y2="-2.981"/>
<line fill="none" stroke="#00A9BF" stroke-width="7" stroke-miterlimit="10" x1="76.328" y1="9.463" x2="90.782" y2="-2.981"/>
<line fill="none" stroke="#00A9BF" stroke-width="7" stroke-miterlimit="10" x1="101.328" y1="9.463" x2="115.782" y2="-2.981"/>
<line fill="none" stroke="#00A9BF" stroke-width="7" stroke-miterlimit="10" x1="126.328" y1="9.463" x2="140.782" y2="-2.981"/>
<line fill="none" stroke="#00A9BF" stroke-width="7" stroke-miterlimit="10" x1="151.328" y1="9.463" x2="165.782" y2="-2.981"/>
<line fill="none" stroke="#00A9BF" stroke-width="7" stroke-miterlimit="10" x1="176.328" y1="9.463" x2="190.782" y2="-2.981"/>
<line fill="none" stroke="#00A9BF" stroke-width="7" stroke-miterlimit="10" x1="201.328" y1="9.463" x2="215.782" y2="-2.981"/>
<line fill="none" stroke="#00A9BF" stroke-width="7" stroke-miterlimit="10" x1="226.328" y1="9.463" x2="240.782" y2="-2.981"/>
<line fill="none" stroke="#00A9BF" stroke-width="7" stroke-miterlimit="10" x1="251.328" y1="9.463" x2="265.782" y2="-2.981"/>
<line fill="none" stroke="#00A9BF" stroke-width="7" stroke-miterlimit="10" x1="276.328" y1="9.463" x2="290.782" y2="-2.981"/>
<line fill="none" stroke="#00A9BF" stroke-width="7" stroke-miterlimit="10" x1="301.328" y1="9.463" x2="315.782" y2="-2.981"/>
<line fill="none" stroke="#00A9BF" stroke-width="7" stroke-miterlimit="10" x1="326.328" y1="9.463" x2="340.782" y2="-2.981"/>
<line fill="none" stroke="#00A9BF" stroke-width="7" stroke-miterlimit="10" x1="351.328" y1="9.463" x2="365.782" y2="-2.981"/>
<line fill="none" stroke="#00A9BF" stroke-width="7" stroke-miterlimit="10" x1="376.328" y1="9.463" x2="390.782" y2="-2.981"/>
<line fill="none" stroke="#00A9BF" stroke-width="7" stroke-miterlimit="10" x1="401.328" y1="9.463" x2="415.782" y2="-2.981"/>
<line fill="none" stroke="#00A9BF" stroke-width="7" stroke-miterlimit="10" x1="426.328" y1="9.463" x2="440.782" y2="-2.981"/>
<line fill="none" stroke="#00A9BF" stroke-width="7" stroke-miterlimit="10" x1="451.328" y1="9.463" x2="465.782" y2="-2.981"/>
<line fill="none" stroke="#00A9BF" stroke-width="7" stroke-miterlimit="10" x1="476.328" y1="9.463" x2="490.782" y2="-2.981"/>
</svg>
