<?xml version="1.0" encoding="utf-8"?>
<!-- Generator: Adobe Illustrator 16.0.0, SVG Export Plug-In . SVG Version: 6.00 Build 0)  -->
<!DOCTYPE svg PUBLIC "-//W3C//DTD SVG 1.1//EN" "http://www.w3.org/Graphics/SVG/1.1/DTD/svg11.dtd">
<svg version="1.1" id="Layer_1" xmlns="http://www.w3.org/2000/svg" xmlns:xlink="http://www.w3.org/1999/xlink" x="0px" y="0px"
	 width="50px" height="50px" viewBox="0 0 50 50" enable-background="new 0 0 50 50" xml:space="preserve">
<path fill="#FFFFFF" d="M42.684,49H7.32c-3.484,0-6.319-2.835-6.319-6.32V7.32c0-1.687,0.657-3.274,1.851-4.468
	C4.046,1.658,5.633,1,7.32,1h35.364C46.166,1,49,3.835,49,7.32v35.362C49,46.166,46.166,49,42.684,49z M7.32,4
	C6.434,4,5.601,4.346,4.973,4.973C4.346,5.6,4,6.434,4.001,7.319v35.36C4.001,44.511,5.49,46,7.32,46h35.364
	C44.513,46,46,44.512,46,42.682V7.32C46,5.489,44.513,4,42.684,4H7.32z"/>
</svg>
