<?xml version="1.0" encoding="utf-8"?>
<!-- Generator: Adobe Illustrator 16.0.3, SVG Export Plug-In . SVG Version: 6.00 Build 0)  -->
<!DOCTYPE svg PUBLIC "-//W3C//DTD SVG 1.1//EN" "http://www.w3.org/Graphics/SVG/1.1/DTD/svg11.dtd">
<svg version="1.1" id="Layer_1" xmlns="http://www.w3.org/2000/svg" xmlns:xlink="http://www.w3.org/1999/xlink" x="0px" y="0px"
	 width="60px" height="60px" viewBox="0 0 60 60" enable-background="new 0 0 60 60" xml:space="preserve">
<path fill="none" stroke="#FFB400" stroke-width="2" stroke-linejoin="round" stroke-miterlimit="10" d="M40.43,46.492
	c-0.169,0-0.331-0.05-0.473-0.144l-9.343-6.229c-0.186-0.124-0.399-0.186-0.613-0.186s-0.427,0.062-0.613,0.186l-9.343,6.229
	c-0.14,0.093-0.303,0.143-0.471,0.143c-0.182,0-0.356-0.057-0.503-0.164c-0.288-0.21-0.414-0.579-0.316-0.92l3.14-10.992
	c0.117-0.411-0.012-0.853-0.332-1.133l-7.781-6.847c-0.255-0.229-0.344-0.597-0.216-0.929c0.125-0.327,0.444-0.546,0.792-0.546
	h9.952c0.46,0,0.871-0.284,1.033-0.714l3.853-10.2c0.125-0.326,0.437-0.541,0.793-0.542c0.353,0,0.666,0.215,0.795,0.547
	l3.869,10.195c0.164,0.429,0.574,0.713,1.032,0.713h9.957c0.349,0,0.668,0.22,0.793,0.547c0.126,0.326,0.035,0.701-0.226,0.937
	l-7.772,6.838c-0.321,0.28-0.45,0.722-0.334,1.133l3.142,10.992c0.098,0.341-0.028,0.71-0.313,0.918
	C40.782,46.435,40.608,46.492,40.43,46.492z"/>
</svg>
