<?xml version="1.0" encoding="utf-8"?>
<!-- Generator: Adobe Illustrator 22.1.0, SVG Export Plug-In . SVG Version: 6.00 Build 0)  -->
<svg version="1.1" id="Layer_1" xmlns="http://www.w3.org/2000/svg" xmlns:xlink="http://www.w3.org/1999/xlink" x="0px" y="0px"
	 viewBox="0 0 96 62" style="enable-background:new 0 0 96 62;" xml:space="preserve">
<style type="text/css">
	.st0{fill:#FFFFFF;}
</style>
<g id="Radio">
	<g id="_x30_21">
		<path class="st0" d="M48,62c-17.1,0-31-13.9-31-31C17,13.9,30.9,0,48,0c17.1,0,31,13.9,31,31C79,48.1,65.1,62,48,62z M48,3
			C32,3,20,15,20,31c0,16,12,28,28,28c16,0,28-12,28-28C76,15,64,3,48,3z"/>
		<path class="st0" d="M66.1,31c0,10-8.1,18.1-18.1,18.1C38,49.1,29.9,41,29.9,31c0-10,8.1-18.1,18.1-18.1C58,12.9,66.1,21,66.1,31z
			"/>
	</g>
</g>
</svg>
