<?xml version="1.0" encoding="utf-8"?>
<!-- Generator: Adobe Illustrator 24.0.0, SVG Export Plug-In . SVG Version: 6.00 Build 0)  -->
<svg version="1.1" id="Layer_1" xmlns="http://www.w3.org/2000/svg" xmlns:xlink="http://www.w3.org/1999/xlink" x="0px" y="0px"
	 viewBox="0 0 120 120" style="enable-background:new 0 0 120 120;" xml:space="preserve">
<title>settings/main_icon/05_wallpaper copy</title>
<desc>Created with Sketch.</desc>
<g id="settings_x2F_main_x5F_icon_x2F_05_x5F_wallpaper-copy">
	<g id="Homescreen_x2F_wallpaper" transform="translate(8.000000, 8.000000)">
		<g id="Aod_x2F_style_x28_theme_x29_">
			<path id="style_x28_theme_x29_" d="M69,75c0,0.7-0.6,1.3-1.3,1.3H36.3c-0.7,0-1.3-0.6-1.3-1.3v-7.6c0-1.2,0.8-1.9,0.8-2l7.4-6.9
				c0.5-0.5,1.3-0.5,1.8,0l3.6,3.5c0.5,0.5,1.3,0.5,1.7,0l9.1-8.9c0.5-0.5,1.2-0.5,1.7,0l7.2,7.4c0,0,0.7,0.6,0.7,1.5V75z
				 M44.7,34.6c2.6,0,4.7,2.1,4.7,4.7c0,2.6-2.1,4.7-4.7,4.7c-2.6,0-4.7-2.1-4.7-4.7C40,36.7,42.1,34.6,44.7,34.6L44.7,34.6z
				 M70,21.9H34c-2.8,0-5,2.2-5,5v50.2c0,2.8,2.2,5,5,5h36c2.8,0,5-2.3,5-5V26.9C75,24.1,72.8,21.9,70,21.9L70,21.9z"/>
		</g>
	</g>
</g>
</svg>
