<?xml version="1.0" encoding="utf-8"?>
<!-- Generator: Adobe Illustrator 24.0.0, SVG Export Plug-In . SVG Version: 6.00 Build 0)  -->
<svg version="1.1" id="Layer_1" xmlns="http://www.w3.org/2000/svg" xmlns:xlink="http://www.w3.org/1999/xlink" x="0px" y="0px"
	 viewBox="0 0 60 60" style="enable-background:new 0 0 60 60;" xml:space="preserve">
<style type="text/css">
	.st0{fill:#FFFFFF;}
</style>
<g>
	<path id="path-1" class="st0" d="M55.1,27.8H32.2V4.9c0-1.2-1-2.2-2.2-2.2s-2.2,1-2.2,2.2v22.9H4.9c-1.2,0-2.2,1-2.2,2.2
		s1,2.2,2.2,2.2h22.9v22.9c0,1.2,1,2.2,2.2,2.2s2.2-1,2.2-2.2V32.2h22.9c1.2,0,2.2-1,2.2-2.2S56.4,27.8,55.1,27.8"/>
</g>
<title>PNG/Light/Winset/Action_bar/tw_ic_ab_add_mtrl</title>
<desc>Created with Sketch.</desc>
<g>
	<path d="M55.1,27.8H32.2V4.9c0-1.2-1-2.2-2.2-2.2c-1.2,0-2.2,1-2.2,2.2v22.9H4.9c-1.2,0-2.2,1-2.2,2.2c0,1.2,1,2.2,2.2,2.2h22.9
		v22.9c0,1.2,1,2.2,2.2,2.2c1.2,0,2.2-1,2.2-2.2V32.2h22.9c1.2,0,2.2-1,2.2-2.2C57.4,28.8,56.4,27.8,55.1,27.8"/>
</g>
</svg>
