<svg height="24" viewBox="0 0 24 24" width="24" xmlns="http://www.w3.org/2000/svg"><path d="m11.665659 2c-4.41911626 0-8.18833218 2.76607387-9.665659 6.65535226l2.33639931 1.35379614c.97768058-3.10798561 3.88911043-5.36285907 7.32925969-5.36285907 4.24159 0 7.6801955 3.42783858 7.6801955 7.65672027 0 4.2283686-3.4386055 7.6567202-7.6801955 7.6567202-1.84652991 0-3.54049016-.6502223-4.86524735-1.7326436l2.7297871-3.255985-7.41364893.6840801.68206084 7.3448187 2.26873352-2.7060534c1.7770631 1.4333106 4.13610343 2.3118161 6.59831482 2.3118161 5.7075963 0 10.334341-4.6126026 10.334341-10.3027531 0-5.690407-4.6267447-10.3030096-10.334341-10.3030096" fill="#fff" fill-rule="evenodd"/></svg>