<?xml version="1.0" encoding="utf-8"?>
<!-- Generator: Adobe Illustrator 24.0.0, SVG Export Plug-In . SVG Version: 6.00 Build 0)  -->
<svg version="1.1" id="Layer_1" xmlns="http://www.w3.org/2000/svg" xmlns:xlink="http://www.w3.org/1999/xlink" x="0px" y="0px"
	 viewBox="0 0 120 120" style="enable-background:new 0 0 120 120;" xml:space="preserve">
<title>settings/main_icon/03_notifications copy</title>
<desc>Created with Sketch.</desc>
<g id="settings_x2F_main_x5F_icon_x2F_03_x5F_notifications-copy">
	<g id="Settings_x2F_Menu-tree_x2F_notifications" transform="translate(8.000000, 8.000000)">
		<path id="Notifications" d="M59.4,35.9c-0.1,0.4-0.2,0.9-0.3,1.4c-0.1,0.5-0.1,0.9-0.2,1.4c0,0.4-0.1,0.8-0.1,1.3
			c0,9,7.3,16.4,16.4,16.4c0,0,0.1,0,0.1,0c0.5,0,0.9,0,1.4-0.1c0.5,0,0.9-0.1,1.4-0.2l0,0v4.9c0,6.8-5.5,12.3-12.3,12.3l0,0H33
			c-6.8,0-12.3-5.5-12.3-12.3l0,0h0V48.2c0-6.8,5.5-12.3,12.3-12.3l0,0H59.4z M75.3,29.9c5.5,0,10,4.5,10,10c0,4.6-3,8.4-7.2,9.6
			c-0.4,0.1-0.9,0.2-1.4,0.3c-0.4,0.1-0.9,0.1-1.4,0.1c0,0-0.1,0-0.1,0c-5.5,0-10-4.5-10-10c0-0.4,0-0.9,0.1-1.3
			c0.1-0.5,0.1-0.9,0.3-1.4c0.1-0.5,0.3-0.9,0.5-1.3C67.6,32.4,71.2,29.9,75.3,29.9z"/>
	</g>
</g>
</svg>
