<?xml version="1.0" encoding="UTF-8" standalone="no"?>
<!-- Generator: Adobe Illustrator 16.0.4, SVG Export Plug-In . SVG Version: 6.00 Build 0)  -->

<svg
   xmlns:dc="http://purl.org/dc/elements/1.1/"
   xmlns:cc="http://creativecommons.org/ns#"
   xmlns:rdf="http://www.w3.org/1999/02/22-rdf-syntax-ns#"
   xmlns:svg="http://www.w3.org/2000/svg"
   xmlns="http://www.w3.org/2000/svg"
   xmlns:sodipodi="http://sodipodi.sourceforge.net/DTD/sodipodi-0.dtd"
   xmlns:inkscape="http://www.inkscape.org/namespaces/inkscape"
   version="1.1"
   id="Layer_1"
   x="0px"
   y="0px"
   width="85px"
   height="85px"
   viewBox="0 0 85 85"
   enable-background="new 0 0 85 85"
   xml:space="preserve"
   inkscape:version="0.48.4 r9939"
   sodipodi:docname="devices-ivi.svg"><metadata
     id="metadata3093"><rdf:RDF><cc:Work
         rdf:about=""><dc:format>image/svg+xml</dc:format><dc:type
           rdf:resource="http://purl.org/dc/dcmitype/StillImage" /></cc:Work></rdf:RDF></metadata><defs
     id="defs3091" /><sodipodi:namedview
     pagecolor="#ffffff"
     bordercolor="#666666"
     borderopacity="1"
     objecttolerance="10"
     gridtolerance="10"
     guidetolerance="10"
     inkscape:pageopacity="0"
     inkscape:pageshadow="2"
     inkscape:window-width="1920"
     inkscape:window-height="1056"
     id="namedview3089"
     showgrid="false"
     inkscape:zoom="10.694118"
     inkscape:cx="42.5"
     inkscape:cy="42.5"
     inkscape:window-x="0"
     inkscape:window-y="24"
     inkscape:window-maximized="1"
     inkscape:current-layer="Layer_1" /><path
     fill="#A5A5A4"
     d="M42.5,16C27.863,16,16,27.864,16,42.5S27.863,69,42.5,69C57.135,69,69,57.136,69,42.5S57.135,16,42.5,16z   M42.5,21c8.76,0,16.301,5.273,19.648,12.807L50.552,37.44c-1.686-2.675-4.657-4.458-8.053-4.458c-3.177,0-5.982,1.562-7.711,3.953  l-11.68-3.66C26.571,26.03,33.949,21,42.5,21z M21,42.5c0-1.542,0.171-3.044,0.48-4.495l11.545,3.616  c-0.026,0.29-0.044,0.583-0.044,0.879c0,4.393,2.976,8.077,7.019,9.177v12.165C29.32,62.598,21,53.509,21,42.5z M45,63.842V51.677  c4.041-1.1,7.02-4.786,7.02-9.177c0-0.093-0.012-0.184-0.014-0.276l11.619-3.641C63.861,39.855,64,41.161,64,42.5  C64,53.509,55.68,62.598,45,63.842z"
     id="path3087"
     style="fill:#aa0088" /></svg>