<?xml version="1.0" encoding="UTF-8" standalone="no"?>
<!-- Generator: Adobe Illustrator 16.0.4, SVG Export Plug-In . SVG Version: 6.00 Build 0)  -->

<svg
   xmlns:dc="http://purl.org/dc/elements/1.1/"
   xmlns:cc="http://creativecommons.org/ns#"
   xmlns:rdf="http://www.w3.org/1999/02/22-rdf-syntax-ns#"
   xmlns:svg="http://www.w3.org/2000/svg"
   xmlns="http://www.w3.org/2000/svg"
   xmlns:sodipodi="http://sodipodi.sourceforge.net/DTD/sodipodi-0.dtd"
   xmlns:inkscape="http://www.inkscape.org/namespaces/inkscape"
   version="1.1"
   id="Layer_1"
   x="0px"
   y="0px"
   width="85px"
   height="85px"
   viewBox="0 0 85 85"
   enable-background="new 0 0 85 85"
   xml:space="preserve"
   inkscape:version="0.48.4 r9939"
   sodipodi:docname="devices-mobile.svg"><metadata
     id="metadata3102"><rdf:RDF><cc:Work
         rdf:about=""><dc:format>image/svg+xml</dc:format><dc:type
           rdf:resource="http://purl.org/dc/dcmitype/StillImage" /></cc:Work></rdf:RDF></metadata><defs
     id="defs3100" /><sodipodi:namedview
     pagecolor="#ffffff"
     bordercolor="#666666"
     borderopacity="1"
     objecttolerance="10"
     gridtolerance="10"
     guidetolerance="10"
     inkscape:pageopacity="0"
     inkscape:pageshadow="2"
     inkscape:window-width="1920"
     inkscape:window-height="1056"
     id="namedview3098"
     showgrid="false"
     inkscape:zoom="2.7764706"
     inkscape:cx="31.52784"
     inkscape:cy="42.5"
     inkscape:window-x="0"
     inkscape:window-y="24"
     inkscape:window-maximized="1"
     inkscape:current-layer="Layer_1" /><path
     fill="#A5A5A4"
     d="M62,20c0-3.175-3.154-6-6.301-6H29.303C26.157,14,23,16.825,23,20v46c0,3.176,3.156,5.961,6.303,5.961  l26.398,0.002C58.844,71.963,62,69.176,62,66V20L62,20z M42.502,67.992c-1.826-0.002-3.309-1.498-3.307-3.344  c0-1.848,1.482-3.34,3.303-3.34c1.828,0,3.309,1.492,3.309,3.34C45.805,66.494,44.326,67.99,42.502,67.992z M57,57H28V20h29V57z"
     id="path3096"
     style="fill:#5500d4" /></svg>