<?xml version="1.0" encoding="utf-8"?><svg width="2592" height="96" viewBox="0 0 2592 96" xmlns="http://www.w3.org/2000/svg" xmlns:xlink="http://www.w3.org/1999/xlink"><svg version="1.1" id="icon_sem_btn_radio_to_on_mtrl_000" viewBox="0 0 96 96" xml:space="preserve" width="96" height="96" xmlns="http://www.w3.org/2000/svg"><style>.st0{fill:#fff}</style><g id="Radio"><path id="_x30_00" class="st0" d="M48 79c-17.1 0-31-13.9-31-31s13.9-31 31-31 31 13.9 31 31-13.9 31-31 31zm0-59c-16 0-28 12-28 28s12 28 28 28 28-12 28-28-12-28-28-28z"/></g></svg><svg version="1.1" id="icon_sem_btn_radio_to_on_mtrl_001" x="96" viewBox="0 0 96 96" xml:space="preserve" width="96" height="96" xmlns="http://www.w3.org/2000/svg"><style>.st0{fill:#fff}</style><g id="Radio"><path id="_x30_01" class="st0" d="M48 78c-16.5 0-30-13.5-30-30s13.5-30 30-30 30 13.5 30 30-13.5 30-30 30zm0-57c-15.4 0-27 11.6-27 27s11.6 27 27 27 27-11.6 27-27-11.6-27-27-27z"/></g></svg><svg version="1.1" id="icon_sem_btn_radio_to_on_mtrl_002" x="192" viewBox="0 0 96 96" xml:space="preserve" width="96" height="96" xmlns="http://www.w3.org/2000/svg"><style>.st0{fill:#fff}</style><g id="Radio"><path id="_x30_02" class="st0" d="M48 77c-16 0-29-13-29-29s13-29 29-29 29 13 29 29-13 29-29 29zm0-55c-14.9 0-26 11.1-26 26s11.1 26 26 26 26-11.1 26-26-11.1-26-26-26z"/></g></svg><svg version="1.1" id="icon_sem_btn_radio_to_on_mtrl_003" x="288" viewBox="0 0 96 96" xml:space="preserve" width="96" height="96" xmlns="http://www.w3.org/2000/svg"><style>.st0{fill:#fff}</style><g id="Radio"><path id="_x30_03" class="st0" d="M48 76c-15.4 0-28-12.6-28-28s12.6-28 28-28 28 12.6 28 28-12.6 28-28 28zm0-53c-14.3 0-25 10.7-25 25s10.7 25 25 25 25-10.7 25-25-10.7-25-25-25z"/></g></svg><svg version="1.1" id="icon_sem_btn_radio_to_on_mtrl_004" x="384" viewBox="0 0 96 96" xml:space="preserve" width="96" height="96" xmlns="http://www.w3.org/2000/svg"><style>.st0{fill:#fff}</style><g id="Radio"><path id="_x30_04" class="st0" d="M48 75c-14.9 0-27-12.1-27-27s12.1-27 27-27 27 12.1 27 27-12.1 27-27 27zm0-51c-13.8 0-24 10.2-24 24s10.2 24 24 24 24-10.2 24-24-10.2-24-24-24z"/></g></svg><svg version="1.1" id="icon_sem_btn_radio_to_on_mtrl_005" x="480" viewBox="0 0 96 96" xml:space="preserve" width="96" height="96" xmlns="http://www.w3.org/2000/svg"><style>.st0{fill:#fff}</style><g id="Radio"><path id="_x30_05" class="st0" d="M48 74c-14.3 0-26-11.7-26-26s11.7-26 26-26 26 11.7 26 26-11.7 26-26 26zm0-49c-13.2 0-23 9.8-23 23s9.8 23 23 23 23-9.8 23-23-9.8-23-23-23z"/></g></svg><svg version="1.1" id="icon_sem_btn_radio_to_on_mtrl_006" x="576" viewBox="0 0 96 96" xml:space="preserve" width="96" height="96" xmlns="http://www.w3.org/2000/svg"><style>.st0{fill:#fff}</style><g id="Radio"><path id="_x30_06" class="st0" d="M48 74c-14.3 0-26-11.7-26-26s11.7-26 26-26 26 11.7 26 26-11.7 26-26 26zm0-49c-13.2 0-23 9.8-23 23s9.8 23 23 23 23-9.8 23-23-9.8-23-23-23z"/></g></svg><svg version="1.1" id="icon_sem_btn_radio_to_on_mtrl_007" x="672" viewBox="0 0 96 96" xml:space="preserve" width="96" height="96" xmlns="http://www.w3.org/2000/svg"><style>.st0{fill:#fff}</style><g id="Radio"><g id="_x30_07_2_"><path class="st0" d="M48 74.5c-14.6 0-26.5-11.9-26.5-26.5S33.4 21.5 48 21.5 74.5 33.4 74.5 48 62.6 74.5 48 74.5zm0-50c-13.5 0-23.5 10-23.5 23.5s10 23.5 23.5 23.5 23.5-10 23.5-23.5-10-23.5-23.5-23.5z"/><circle class="st0" cx="48" cy="48" r="2"/></g></g></svg><svg version="1.1" id="icon_sem_btn_radio_to_on_mtrl_008" x="768" viewBox="0 0 96 96" xml:space="preserve" width="96" height="96" xmlns="http://www.w3.org/2000/svg"><style>.st0{fill:#fff}</style><g id="Radio"><g id="_x30_08"><path class="st0" d="M48 75c-14.9 0-27-12.1-27-27s12.1-27 27-27 27 12.1 27 27-12.1 27-27 27zm0-51c-13.8 0-24 10.2-24 24s10.2 24 24 24 24-10.2 24-24-10.2-24-24-24z"/><circle class="st0" cx="48" cy="48" r="4"/></g></g></svg><svg version="1.1" id="icon_sem_btn_radio_to_on_mtrl_009" x="864" viewBox="0 0 96 96" xml:space="preserve" width="96" height="96" xmlns="http://www.w3.org/2000/svg"><style>.st0{fill:#fff}</style><g id="Radio"><g id="_x30_09"><path class="st0" d="M48 75.5c-15.2 0-27.5-12.3-27.5-27.5S32.8 20.5 48 20.5 75.5 32.8 75.5 48 63.2 75.5 48 75.5zm0-52c-14.1 0-24.5 10.4-24.5 24.5S33.9 72.5 48 72.5 72.5 62.1 72.5 48 62.1 23.5 48 23.5z"/><circle class="st0" cx="48" cy="48" r="6"/></g></g></svg><svg version="1.1" id="icon_sem_btn_radio_to_on_mtrl_010" x="960" viewBox="0 0 96 96" xml:space="preserve" width="96" height="96" xmlns="http://www.w3.org/2000/svg"><style>.st0{fill:#fff}</style><g id="Radio"><g id="_x30_10"><path class="st0" d="M48 76c-15.4 0-28-12.6-28-28s12.6-28 28-28 28 12.6 28 28-12.6 28-28 28zm0-53c-14.3 0-25 10.7-25 25s10.7 25 25 25 25-10.7 25-25-10.7-25-25-25z"/><circle class="st0" cx="48" cy="48" r="8"/></g></g></svg><svg version="1.1" id="icon_sem_btn_radio_to_on_mtrl_011" x="1056" viewBox="0 0 96 96" xml:space="preserve" width="96" height="96" xmlns="http://www.w3.org/2000/svg"><style>.st0{fill:#fff}</style><g id="Radio"><g id="_x30_11"><path class="st0" d="M48 76.5c-15.7 0-28.5-12.8-28.5-28.5S32.3 19.5 48 19.5 76.5 32.3 76.5 48 63.7 76.5 48 76.5zm0-54c-14.6 0-25.5 10.9-25.5 25.5S33.4 73.5 48 73.5 73.5 62.6 73.5 48 62.6 22.5 48 22.5z"/><circle class="st0" cx="48" cy="48" r="10"/></g></g></svg><svg version="1.1" id="icon_sem_btn_radio_to_on_mtrl_012" x="1152" viewBox="0 0 96 96" xml:space="preserve" width="96" height="96" xmlns="http://www.w3.org/2000/svg"><style>.st0{fill:#fff}</style><g id="Radio"><g id="_x30_12"><path class="st0" d="M48 77c-16 0-29-13-29-29s13-29 29-29 29 13 29 29-13 29-29 29zm0-55c-14.9 0-26 11.1-26 26s11.1 26 26 26 26-11.1 26-26-11.1-26-26-26z"/><path class="st0" d="M60 48c0 6.6-5.4 12-12 12s-12-5.4-12-12 5.4-12 12-12 12 5.4 12 12z"/></g></g></svg><svg version="1.1" id="icon_sem_btn_radio_to_on_mtrl_013" x="1248" viewBox="0 0 96 96" xml:space="preserve" width="96" height="96" xmlns="http://www.w3.org/2000/svg"><style>.st0{fill:#fff}</style><g id="Radio"><g id="_x30_13"><path class="st0" d="M48 77.5c-16.3 0-29.5-13.2-29.5-29.5S31.7 18.5 48 18.5 77.5 31.7 77.5 48 64.3 77.5 48 77.5zm0-56c-15.2 0-26.5 11.3-26.5 26.5S32.8 74.5 48 74.5 74.5 63.2 74.5 48 63.2 21.5 48 21.5z"/><path class="st0" d="M62 48c0 7.7-6.3 14-14 14s-14-6.3-14-14 6.3-14 14-14 14 6.3 14 14z"/></g></g></svg><svg version="1.1" id="icon_sem_btn_radio_to_on_mtrl_014" x="1344" viewBox="0 0 96 96" xml:space="preserve" width="96" height="96" xmlns="http://www.w3.org/2000/svg"><style>.st0{fill:#fff}</style><g id="Radio"><g id="_x30_14"><path class="st0" d="M48 78c-16.5 0-30-13.5-30-30s13.5-30 30-30 30 13.5 30 30-13.5 30-30 30zm0-57c-15.4 0-27 11.6-27 27s11.6 27 27 27 27-11.6 27-27-11.6-27-27-27z"/><path class="st0" d="M64 48c0 8.8-7.2 16-16 16s-16-7.2-16-16 7.2-16 16-16 16 7.2 16 16z"/></g></g></svg><svg version="1.1" id="icon_sem_btn_radio_to_on_mtrl_015" x="1440" viewBox="0 0 96 96" xml:space="preserve" width="96" height="96" xmlns="http://www.w3.org/2000/svg"><style>.st0{fill:#fff}</style><g id="Radio"><g id="_x30_15"><path class="st0" d="M48 78.5c-16.8 0-30.5-13.7-30.5-30.5S31.2 17.5 48 17.5 78.5 31.2 78.5 48 64.8 78.5 48 78.5zm0-58c-15.7 0-27.5 11.8-27.5 27.5S32.3 75.5 48 75.5 75.5 63.7 75.5 48 63.7 20.5 48 20.5z"/><path class="st0" d="M66 48c0 9.9-8.1 18-18 18s-18-8.1-18-18 8.1-18 18-18 18 8.1 18 18z"/></g></g></svg><svg version="1.1" id="icon_sem_btn_radio_to_on_mtrl_016" x="1536" viewBox="0 0 96 96" xml:space="preserve" width="96" height="96" xmlns="http://www.w3.org/2000/svg"><style>.st0{fill:#fff}</style><g id="Radio"><path class="st0" d="M68 48c0 11-9 20-20 20-11.1 0-20-9-20-20s8.9-20 20-20c11 0 20 9 20 20z" id="_x30_16"/></g><path class="st0" d="M48 79c-17.1 0-31-13.9-31-31s13.9-31 31-31 31 13.9 31 31-13.9 31-31 31zm0-59c-15.4 0-28 12.6-28 28s12.6 28 28 28 28-12.6 28-28-12.6-28-28-28z"/></svg><svg version="1.1" id="icon_sem_btn_radio_to_on_mtrl_017" x="1632" viewBox="0 0 96 96" xml:space="preserve" width="96" height="96" xmlns="http://www.w3.org/2000/svg"><style>.st0{fill:#fff}</style><g id="Radio"><path class="st0" d="M67.6 48c0 10.8-8.8 19.6-19.6 19.6S28.4 58.8 28.4 48 37.2 28.4 48 28.4 67.6 37.2 67.6 48z" id="_x30_17"/></g><path class="st0" d="M48 79c-17.1 0-31-13.9-31-31s13.9-31 31-31 31 13.9 31 31-13.9 31-31 31zm0-59c-15.4 0-28 12.6-28 28s12.6 28 28 28 28-12.6 28-28-12.6-28-28-28z"/></svg><svg version="1.1" id="icon_sem_btn_radio_to_on_mtrl_018" x="1728" viewBox="0 0 96 96" xml:space="preserve" width="96" height="96" xmlns="http://www.w3.org/2000/svg"><style>.st0{fill:#fff}</style><g id="Radio"><path class="st0" d="M67.2 48c0 10.6-8.6 19.2-19.2 19.2S28.8 58.6 28.8 48 37.4 28.8 48 28.8c10.6-.1 19.2 8.6 19.2 19.2z" id="_x30_18"/></g><path class="st0" d="M48 79c-17.1 0-31-13.9-31-31s13.9-31 31-31 31 13.9 31 31-13.9 31-31 31zm0-59c-15.4 0-28 12.6-28 28s12.6 28 28 28 28-12.6 28-28-12.6-28-28-28z"/></svg><svg version="1.1" id="icon_sem_btn_radio_to_on_mtrl_019" x="1824" viewBox="0 0 96 96" xml:space="preserve" width="96" height="96" xmlns="http://www.w3.org/2000/svg"><style>.st0{fill:#fff}</style><g id="Radio"><path class="st0" d="M66.9 48c0 10.4-8.4 18.9-18.9 18.9-10.4 0-18.9-8.4-18.9-18.9 0-10.4 8.4-18.9 18.9-18.9 10.4 0 18.9 8.5 18.9 18.9z" id="_x30_19"/></g><path class="st0" d="M48 79c-17.1 0-31-13.9-31-31s13.9-31 31-31 31 13.9 31 31-13.9 31-31 31zm0-59c-15.4 0-28 12.6-28 28s12.6 28 28 28 28-12.6 28-28-12.6-28-28-28z"/></svg><svg version="1.1" id="icon_sem_btn_radio_to_on_mtrl_020" x="1920" viewBox="0 0 96 96" xml:space="preserve" width="96" height="96" xmlns="http://www.w3.org/2000/svg"><style>.st0{fill:#fff}</style><g id="Radio"><path class="st0" d="M66.5 48c0 10.2-8.3 18.5-18.5 18.5S29.5 58.2 29.5 48 37.8 29.5 48 29.5 66.5 37.8 66.5 48z" id="_x30_20"/></g><path class="st0" d="M48 79c-17.1 0-31-13.9-31-31s13.9-31 31-31 31 13.9 31 31-13.9 31-31 31zm0-59c-15.4 0-28 12.6-28 28s12.6 28 28 28 28-12.6 28-28-12.6-28-28-28z"/></svg><svg version="1.1" id="icon_sem_btn_radio_to_on_mtrl_021" x="2016" viewBox="0 0 96 96" xml:space="preserve" width="96" height="96" xmlns="http://www.w3.org/2000/svg"><style>.st0{fill:#fff}</style><g id="Radio"><path class="st0" d="M66.1 48c0 10-8.1 18.1-18.1 18.1-10 0-18.1-8.1-18.1-18.1 0-10 8.1-18.1 18.1-18.1 10 0 18.1 8.1 18.1 18.1z" id="_x30_21"/></g><path class="st0" d="M48 79c-17.1 0-31-13.9-31-31s13.9-31 31-31 31 13.9 31 31-13.9 31-31 31zm0-59c-15.4 0-28 12.6-28 28s12.6 28 28 28 28-12.6 28-28-12.6-28-28-28z"/></svg><svg version="1.1" id="icon_sem_btn_radio_to_on_mtrl_022" x="2112" viewBox="0 0 96 96" xml:space="preserve" width="96" height="96" xmlns="http://www.w3.org/2000/svg"><style>.st0{fill:#fff}</style><g id="Radio"><g id="_x30_22"><path class="st0" d="M48 79c-17.1 0-31-13.9-31-31s13.9-31 31-31 31 13.9 31 31-13.9 31-31 31zm0-59c-15.4 0-28 12.6-28 28s12.6 28 28 28 28-12.6 28-28-12.6-28-28-28z"/><path class="st0" d="M65.7 48c0 9.8-7.9 17.8-17.8 17.8-9.8 0-17.8-7.9-17.8-17.8 0-9.8 7.9-17.8 17.8-17.8s17.8 8 17.8 17.8z"/></g></g></svg><svg version="1.1" id="icon_sem_btn_radio_to_on_mtrl_023" x="2208" viewBox="0 0 96 96" xml:space="preserve" width="96" height="96" xmlns="http://www.w3.org/2000/svg"><style>.st0{fill:#fff}</style><g id="Radio"><path class="st0" d="M65.4 48c0 9.6-7.8 17.4-17.4 17.4-9.6 0-17.4-7.8-17.4-17.4 0-9.6 7.8-17.4 17.4-17.4 9.6 0 17.4 7.8 17.4 17.4z" id="_x30_23"/></g><path class="st0" d="M48 79c-17.1 0-31-13.9-31-31s13.9-31 31-31 31 13.9 31 31-13.9 31-31 31zm0-59c-15.4 0-28 12.6-28 28s12.6 28 28 28 28-12.6 28-28-12.6-28-28-28z"/></svg><svg version="1.1" id="icon_sem_btn_radio_to_on_mtrl_024" x="2304" viewBox="0 0 96 96" xml:space="preserve" width="96" height="96" xmlns="http://www.w3.org/2000/svg"><style>.st0{fill:#fff}</style><g id="Radio"><path class="st0" d="M65.2 48c0 9.5-7.7 17.2-17.2 17.2S30.8 57.5 30.8 48 38.5 30.8 48 30.8c9.5-.1 17.2 7.7 17.2 17.2z" id="_x30_24"/></g><path class="st0" d="M48 79c-17.1 0-31-13.9-31-31s13.9-31 31-31 31 13.9 31 31-13.9 31-31 31zm0-59c-15.4 0-28 12.6-28 28s12.6 28 28 28 28-12.6 28-28-12.6-28-28-28z"/></svg><svg version="1.1" id="icon_sem_btn_radio_to_on_mtrl_025" x="2400" viewBox="0 0 96 96" xml:space="preserve" width="96" height="96" xmlns="http://www.w3.org/2000/svg"><style>.st0{fill:#fff}</style><g id="Radio"><g id="_x30_25"><path class="st0" d="M48 79c-17.1 0-31-13.9-31-31s13.9-31 31-31 31 13.9 31 31-13.9 31-31 31zm0-59c-15.4 0-28 12.6-28 28s12.6 28 28 28 28-12.6 28-28-12.6-28-28-28z"/><path class="st0" d="M65.1 48c0 9.5-7.7 17.1-17.1 17.1-9.5 0-17.1-7.7-17.1-17.1 0-9.5 7.7-17.1 17.1-17.1 9.5 0 17.1 7.6 17.1 17.1z"/></g></g></svg><svg version="1.1" id="icon_sem_btn_radio_to_on_mtrl_026" x="2496" viewBox="0 0 96 96" xml:space="preserve" width="96" height="96" xmlns="http://www.w3.org/2000/svg"><style>.st0{fill:#fff}</style><g id="Radio"><g id="_x30_26"><path class="st0" d="M48 79c-17.1 0-31-13.9-31-31s13.9-31 31-31 31 13.9 31 31-13.9 31-31 31zm0-59c-15.4 0-28 12.6-28 28s12.6 28 28 28 28-12.6 28-28-12.6-28-28-28z"/><path class="st0" d="M65 48c0 9.4-7.6 17-17 17s-17-7.6-17-17 7.6-17 17-17 17 7.6 17 17z"/></g></g></svg></svg>