<?xml version="1.0" encoding="utf-8"?>
<!-- Generator: Adobe Illustrator 16.0.3, SVG Export Plug-In . SVG Version: 6.00 Build 0)  -->
<!DOCTYPE svg PUBLIC "-//W3C//DTD SVG 1.1//EN" "http://www.w3.org/Graphics/SVG/1.1/DTD/svg11.dtd">
<svg version="1.1" id="Layer_1" xmlns="http://www.w3.org/2000/svg" xmlns:xlink="http://www.w3.org/1999/xlink" x="0px" y="0px"
	 width="72px" height="72px" viewBox="0 0 72 72" enable-background="new 0 0 72 72" xml:space="preserve">
<g>
	<path fill="#FFFFFF" d="M59.277,33C57.924,22.452,49.549,14.076,39,12.724V6.75h-6v5.974C22.451,14.076,14.076,22.452,12.723,33
		H6.75v6h5.973C14.076,49.549,22.451,57.924,33,59.276v5.974h6v-5.974C49.549,57.924,57.924,49.549,59.277,39h5.973v-6H59.277z
		 M36,53.475c-9.636,0-17.476-7.839-17.476-17.475S26.364,18.525,36,18.525S53.476,26.364,53.476,36S45.636,53.475,36,53.475z"/>
	<path fill="#FFFFFF" d="M36,25.5c-5.796,0-10.5,4.704-10.5,10.5S30.204,46.5,36,46.5S46.5,41.796,46.5,36S41.796,25.5,36,25.5z"/>
</g>
</svg>
